<?xml version="1.0" standalone="no"?>
<!DOCTYPE svg PUBLIC "-//W3C//DTD SVG 20010904//EN"
 "http://www.w3.org/TR/2001/REC-SVG-20010904/DTD/svg10.dtd">
<svg version="1.0" xmlns="http://www.w3.org/2000/svg"
 width="923.000000pt" height="267.000000pt" viewBox="0 0 923.000000 267.000000"
 preserveAspectRatio="xMidYMid meet">

<g transform="translate(0.000000,267.000000) scale(0.100000,-0.100000)"
fill="#000000" stroke="none">
<path d="M1499 2650 c-281 -45 -514 -169 -711 -380 -173 -185 -279 -413 -307
-665 -13 -115 -5 -455 13 -546 29 -149 73 -245 161 -351 86 -103 242 -219 651
-483 60 -38 163 -105 229 -147 79 -52 130 -78 149 -78 45 0 824 521 935 626
124 116 194 229 233 372 17 64 21 116 25 315 7 314 -11 441 -87 619 -57 133
-124 232 -237 349 -174 180 -365 291 -603 349 -96 24 -354 35 -451 20z m154
-49 c17 -14 20 -14 30 -1 15 18 49 23 59 8 9 -15 45 -20 53 -8 10 16 25 11 18
-6 -5 -14 -3 -15 15 -5 12 7 22 9 22 5 0 -3 6 -1 13 5 8 6 16 9 18 7 2 -2 28
-6 57 -9 30 -3 62 -13 71 -21 10 -9 21 -13 25 -9 12 12 35 12 33 0 -1 -6 8
-13 21 -15 13 -2 26 -10 29 -18 3 -8 9 -12 13 -9 5 3 11 1 15 -5 3 -5 17 -10
30 -10 13 0 27 -4 30 -10 3 -5 1 -10 -6 -10 -7 0 -9 -3 -6 -6 4 -4 13 -2 20 5
8 6 22 8 32 5 13 -5 14 -9 3 -15 -9 -6 -4 -9 15 -9 18 0 27 -5 27 -16 0 -8 4
-13 9 -9 5 3 17 -5 25 -17 9 -12 18 -19 22 -16 3 4 19 -7 35 -23 15 -16 35
-29 44 -29 8 0 15 -4 15 -10 0 -5 7 -10 15 -10 8 0 15 -8 15 -19 0 -10 12 -26
26 -36 18 -11 24 -23 21 -36 -3 -10 -1 -19 4 -19 5 0 9 9 9 20 0 20 0 20 20 0
12 -12 18 -25 15 -30 -3 -5 5 -16 18 -25 13 -8 30 -26 37 -40 7 -14 19 -25 27
-25 7 0 13 -11 13 -25 0 -15 6 -25 14 -25 21 0 56 -53 56 -84 0 -17 5 -26 16
-26 13 0 14 -3 5 -14 -10 -12 -8 -17 11 -27 14 -8 18 -14 10 -17 -6 -2 -12 -8
-12 -14 0 -6 7 -8 14 -5 20 8 33 -32 15 -45 -11 -8 -10 -9 2 -5 14 5 20 -8 34
-68 10 -41 15 -81 12 -89 -4 -9 -3 -16 1 -16 4 0 8 -8 8 -17 0 -10 3 -37 7
-60 5 -31 3 -45 -9 -57 -14 -15 -11 -20 9 -17 8 1 10 -19 8 -59 -1 -14 -3 -48
-4 -75 -2 -28 -6 -56 -10 -63 -5 -6 -5 -17 -1 -24 5 -7 9 -36 10 -65 2 -43 -1
-53 -14 -54 -16 -1 -16 -2 -1 -6 13 -3 16 -13 12 -46 -4 -39 -14 -102 -18
-119 -2 -5 -3 -14 -4 -20 -1 -9 -4 -8 -11 2 -5 8 -10 10 -10 4 0 -5 5 -15 12
-22 8 -8 8 -12 1 -12 -6 0 -13 -17 -16 -38 -4 -21 -13 -46 -22 -57 -13 -17
-16 -18 -25 -5 -8 12 -10 11 -10 -7 0 -13 -5 -23 -11 -23 -5 0 -7 -5 -4 -11 5
-6 12 -4 21 8 7 10 13 14 13 8 0 -17 -26 -45 -34 -37 -5 4 -5 1 -1 -6 5 -8 1
-21 -9 -32 -14 -15 -22 -17 -36 -9 -12 6 -19 6 -19 0 0 -5 8 -11 18 -13 13 -3
-4 -26 -71 -91 -50 -50 -93 -85 -99 -81 -6 4 -8 3 -5 -3 9 -14 -69 -67 -84
-57 -8 4 -9 3 -5 -4 4 -7 -11 -22 -39 -39 -26 -16 -69 -45 -97 -65 -27 -21
-59 -38 -70 -38 -10 0 -17 -4 -14 -8 5 -8 -56 -50 -194 -138 -25 -16 -48 -28
-51 -29 -3 0 -13 -7 -22 -17 -24 -24 -169 -113 -179 -110 -4 1 -8 -2 -8 -7 0
-5 -11 -12 -25 -15 -14 -4 -23 -11 -20 -16 15 -25 -50 -6 -104 30 -33 22 -62
40 -64 40 -14 0 -351 233 -349 241 1 6 -2 8 -8 4 -13 -8 -52 19 -42 30 4 5 2
5 -5 2 -12 -8 -153 84 -293 191 -84 64 -220 195 -220 212 0 5 -11 25 -24 45
-40 59 -79 173 -82 242 -2 35 -8 73 -14 83 -16 30 -13 396 4 510 8 52 27 133
42 180 22 69 28 81 36 65 8 -18 8 -18 4 3 -6 32 12 80 35 93 11 5 17 14 14 20
-4 5 -2 9 4 9 6 0 8 7 4 16 -5 13 -2 15 18 9 21 -7 22 -6 11 8 -7 8 -9 17 -5
19 21 9 62 78 57 95 -4 13 -3 14 4 5 7 -10 14 -5 31 23 14 24 27 35 36 31 9
-3 12 0 8 10 -3 7 0 14 7 14 6 0 9 4 5 9 -6 11 35 42 47 35 4 -3 8 2 8 11 0
10 6 15 13 12 7 -2 23 4 36 14 13 11 19 19 14 19 -5 0 -15 -6 -22 -12 -8 -7
-5 0 5 16 10 16 20 24 22 17 2 -6 8 -11 13 -11 6 0 7 5 4 10 -3 6 1 10 9 10 8
0 16 -6 19 -12 2 -7 3 -5 2 4 -2 9 4 19 12 22 8 3 12 10 9 14 -6 10 28 29 59
34 11 2 20 8 19 13 0 12 40 45 56 45 6 0 9 4 6 9 -4 5 3 7 15 4 12 -4 25 0 30
8 7 12 9 12 9 -1 1 -13 2 -13 13 1 17 22 57 43 57 29 0 -5 4 -10 10 -10 5 0 7
7 4 15 -4 8 -1 15 5 15 6 0 11 -6 11 -12 0 -8 3 -9 8 -3 11 15 53 37 59 31 3
-3 13 -1 23 4 10 6 31 4 56 -5 37 -12 40 -12 62 12 12 14 29 22 37 20 7 -3 26
-2 42 2 30 9 38 7 66 -18z m-163 -7 c0 -8 -5 -12 -10 -9 -6 4 -8 11 -5 16 9
14 15 11 15 -7z"/>
<path d="M1520 2600 c-8 -5 -11 -12 -7 -16 4 -4 15 0 24 9 18 18 8 23 -17 7z"/>
<path d="M1616 2596 c3 -9 11 -16 16 -16 13 0 5 23 -10 28 -7 2 -10 -2 -6 -12z"/>
<path d="M1561 2584 c0 -11 3 -14 6 -6 3 7 2 16 -1 19 -3 4 -6 -2 -5 -13z"/>
<path d="M1700 2590 c0 -5 5 -10 11 -10 5 0 7 5 4 10 -3 6 -8 10 -11 10 -2 0
-4 -4 -4 -10z"/>
<path d="M1670 2570 c0 -5 5 -10 10 -10 6 0 10 5 10 10 0 6 -4 10 -10 10 -5 0
-10 -4 -10 -10z"/>
<path d="M1961 2566 c-7 -8 -8 -17 -3 -20 6 -3 13 1 16 10 9 23 2 28 -13 10z"/>
<path d="M1880 2560 c0 -5 5 -10 10 -10 6 0 10 5 10 10 0 6 -4 10 -10 10 -5 0
-10 -4 -10 -10z"/>
<path d="M1573 2553 c7 -11 -74 -25 -150 -27 -24 -1 -43 -5 -43 -10 0 -4 -11
-6 -24 -4 -18 4 -23 1 -18 -10 4 -12 0 -14 -22 -8 -16 4 -25 3 -22 -2 3 -5
-22 -22 -57 -37 -34 -16 -86 -43 -115 -62 -29 -18 -56 -33 -60 -33 -12 0 -208
-193 -232 -228 -12 -18 -26 -29 -32 -26 -7 4 -8 2 -4 -4 4 -6 -2 -17 -14 -24
-11 -7 -20 -21 -20 -31 0 -10 -4 -15 -10 -12 -5 3 -7 0 -4 -8 3 -8 -8 -39 -24
-68 -17 -30 -38 -76 -46 -103 -9 -26 -21 -57 -27 -68 -6 -11 -13 -41 -16 -66
-3 -26 -10 -50 -16 -54 -8 -5 -11 -32 -10 -73 1 -36 -3 -65 -8 -65 -5 0 -9
-16 -9 -35 0 -19 5 -35 10 -35 6 0 10 -5 10 -11 0 -5 -4 -7 -10 -4 -5 3 -10
-2 -10 -12 0 -11 -6 -25 -12 -32 -7 -8 -8 -11 -3 -9 6 3 16 0 23 -8 7 -8 8
-14 2 -14 -6 0 -9 -19 -9 -43 1 -23 -3 -53 -10 -66 -7 -12 -10 -25 -7 -29 3
-3 6 0 6 6 0 7 5 12 10 12 7 0 8 -6 2 -17 -7 -11 -6 -23 2 -36 8 -15 8 -21 -1
-24 -7 -3 -13 -9 -13 -14 0 -6 5 -7 10 -4 16 10 22 -20 12 -59 -8 -28 -8 -36
3 -36 7 0 15 6 18 13 4 12 7 -8 10 -75 1 -18 8 -37 14 -43 7 -5 14 -25 16 -43
2 -18 9 -38 15 -44 7 -7 12 -18 12 -26 0 -7 4 -11 9 -8 10 7 35 -51 32 -74 -1
-10 1 -11 6 -4 11 16 119 -97 116 -122 -2 -10 0 -14 3 -7 7 15 73 -16 74 -34
0 -7 7 -10 15 -7 8 4 15 2 15 -4 0 -6 -6 -12 -12 -15 -7 -2 -1 -4 15 -4 17 0
37 -11 52 -27 13 -14 29 -26 35 -26 5 0 10 -4 10 -10 0 -5 5 -10 11 -10 5 0 7
5 3 12 -4 7 -3 8 4 4 7 -4 12 -14 12 -22 0 -8 5 -12 10 -9 6 3 13 -1 16 -9 3
-9 10 -14 14 -11 4 2 21 -8 37 -23 16 -16 34 -27 40 -25 14 5 35 -31 25 -42
-4 -4 4 -5 18 -2 29 7 56 -6 46 -21 -3 -6 2 -13 13 -17 11 -3 22 -13 25 -22 5
-12 9 -13 21 -3 13 11 20 9 38 -9 13 -11 27 -21 33 -21 18 -1 66 -48 60 -59
-4 -6 -1 -9 7 -5 8 3 21 -2 30 -10 9 -9 24 -16 34 -16 12 0 14 -3 6 -8 -9 -6
-4 -13 17 -26 17 -9 30 -22 30 -28 0 -5 7 -7 16 -4 11 4 15 2 11 -8 -6 -16 30
-30 39 -15 3 5 17 9 31 9 16 0 27 7 30 19 2 10 23 28 46 41 23 13 52 32 63 42
12 11 32 18 45 16 17 -2 25 3 27 16 4 21 51 65 70 66 6 0 12 5 12 10 0 7 6 7
19 1 16 -9 18 -8 14 7 -3 12 8 25 36 42 22 14 41 28 41 32 0 3 10 4 22 0 13
-3 19 -1 15 5 -4 6 9 18 29 28 19 9 38 23 41 31 3 8 9 12 13 9 4 -3 13 2 20
11 7 8 39 30 71 49 32 18 67 43 79 55 16 16 24 19 30 10 5 -9 9 -9 14 -1 4 6
4 11 0 11 -4 0 1 9 11 20 10 11 22 17 26 14 5 -3 9 2 9 11 0 11 5 15 15 11 8
-3 15 -1 15 3 0 5 15 25 33 44 17 19 39 43 47 54 8 10 26 24 40 30 18 9 20 12
8 12 -17 1 -27 21 -10 21 4 0 15 23 25 51 12 34 26 53 39 57 15 3 19 11 15 28
-3 17 0 24 12 24 14 1 14 2 -1 14 -10 7 -16 15 -13 17 6 7 15 57 22 127 3 34
10 62 16 62 6 0 6 5 1 13 -5 6 -9 103 -9 214 0 110 -3 199 -6 197 -3 -2 -9 22
-12 54 -9 81 -11 87 -51 191 -29 74 -34 97 -25 114 9 20 9 21 -4 4 -14 -17
-16 -15 -38 20 -12 21 -44 68 -71 105 -29 39 -46 72 -42 79 4 8 3 9 -5 5 -7
-5 -33 13 -65 44 -30 29 -94 79 -142 112 -49 34 -88 65 -86 70 1 5 -2 7 -7 4
-5 -4 -42 9 -83 27 -58 27 -135 51 -228 72 -38 9 -113 16 -191 19 -53 2 -102
7 -109 11 -8 5 -11 4 -7 -2z m242 -34 c128 -17 219 -45 327 -100 133 -66 205
-118 299 -215 146 -152 225 -301 271 -509 9 -42 13 -142 12 -330 0 -246 -2
-277 -22 -349 -37 -133 -104 -233 -217 -325 -87 -70 -751 -522 -789 -537 -14
-6 -630 386 -776 494 -164 121 -242 240 -276 417 -25 129 -24 516 0 630 20 92
73 234 113 303 73 128 208 273 336 360 199 138 466 197 722 161z m-1208 -1111
c-3 -8 -6 -5 -6 6 -1 11 2 17 5 13 3 -3 4 -12 1 -19z"/>
<path d="M1115 2178 c-3 -8 6 -39 20 -69 l25 -54 0 -610 0 -610 -25 -54 c-14
-30 -24 -56 -21 -58 2 -2 199 -4 437 -4 479 -1 493 1 594 62 99 59 153 142
180 276 13 67 14 92 5 144 -22 118 -89 208 -197 264 -49 25 -68 45 -42 45 6 0
30 14 54 30 53 36 107 128 125 211 39 177 -83 366 -268 414 -86 23 -879 34
-887 13z m321 -43 c-3 -9 0 -15 9 -15 8 0 15 5 15 11 0 7 11 4 27 -6 22 -15
25 -15 20 -2 -7 18 19 27 77 27 37 0 38 -1 21 -14 -18 -13 -15 -14 30 -11 28
2 49 8 48 14 -2 5 6 9 17 8 11 -1 20 -8 20 -17 1 -12 4 -10 16 5 13 17 16 18
24 5 9 -13 10 -13 11 0 0 8 6 2 13 -13 11 -24 14 -26 25 -14 9 12 8 16 -5 21
-9 4 -14 9 -11 12 3 3 12 2 19 -2 17 -11 58 -12 58 -2 0 4 8 8 17 8 14 0 13
-3 -5 -20 -26 -24 -28 -35 -7 -26 8 3 15 1 15 -3 0 -5 3 -17 7 -27 4 -12 3
-15 -5 -10 -8 5 -12 -1 -12 -16 1 -21 2 -21 11 -5 6 9 14 15 20 12 13 -8 11
-2 -6 31 -14 27 -13 30 7 46 12 9 27 14 32 10 5 -3 0 -10 -12 -15 -25 -11 -29
-27 -7 -27 8 0 15 4 15 9 0 18 35 21 75 7 30 -11 42 -11 47 -3 5 8 12 6 21 -8
19 -24 11 -47 -13 -40 -10 3 -22 0 -27 -7 -4 -7 -17 -20 -27 -28 -18 -14 -18
-13 -12 10 6 20 5 22 -4 10 -8 -11 -13 -12 -16 -3 -3 7 -12 9 -20 6 -8 -3 -14
0 -14 6 0 6 15 15 33 20 25 7 27 9 9 10 -13 1 -20 6 -17 11 3 6 1 10 -5 10 -6
0 -13 -6 -16 -14 -3 -8 -12 -12 -19 -10 -11 5 -12 1 -2 -20 7 -14 16 -26 21
-26 5 0 17 -7 27 -16 14 -12 22 -13 38 -4 19 10 21 8 21 -25 0 -36 18 -46 28
-15 3 7 0 10 -7 6 -7 -5 -11 6 -11 34 0 25 4 39 10 35 6 -4 7 -11 4 -17 -5 -7
-2 -9 8 -5 17 6 58 -18 58 -35 0 -6 -11 -3 -25 6 -14 9 -25 12 -25 7 0 -11 36
-33 58 -37 16 -3 15 7 -4 34 -9 13 -13 30 -10 39 6 14 11 12 36 -12 17 -16 30
-25 30 -20 0 4 3 5 6 2 4 -4 -4 -15 -17 -26 -13 -11 -19 -20 -12 -21 6 0 14 6
16 13 4 7 6 6 6 -4 1 -20 31 -34 32 -16 1 22 28 -48 29 -75 0 -30 -9 -34 -43
-17 -21 10 -21 10 -3 -5 11 -9 23 -16 28 -16 4 0 8 -8 9 -17 0 -16 2 -15 9 2
6 14 8 0 5 -41 -5 -70 -13 -96 -27 -88 -6 4 -8 -2 -3 -15 5 -17 3 -20 -11 -14
-13 5 -15 2 -9 -15 3 -13 2 -22 -4 -22 -6 0 -15 -10 -21 -22 -11 -22 -10 -22
4 -4 9 11 16 15 16 9 0 -15 -36 -44 -45 -36 -4 5 -5 3 -1 -4 6 -12 -42 -53
-64 -53 -16 0 -40 -26 -40 -44 0 -19 49 -66 64 -60 6 2 23 -7 38 -21 15 -14
32 -25 37 -25 5 0 13 -5 17 -12 5 -7 2 -9 -8 -6 -8 4 -21 2 -29 -3 -10 -6 -5
-9 18 -9 21 0 31 -4 29 -12 -1 -7 -1 -10 1 -5 9 15 43 6 53 -13 7 -14 7 -20 0
-20 -5 0 -10 8 -10 18 0 14 -2 15 -10 2 -7 -11 -4 -17 10 -24 11 -5 20 -17 20
-27 0 -9 6 -19 13 -22 6 -2 9 -8 5 -12 -9 -9 -38 13 -38 29 0 6 -9 17 -20 24
-18 11 -21 10 -29 -9 -5 -15 -10 -19 -15 -11 -8 13 -26 7 -26 -9 0 -6 5 -7 12
-3 7 5 9 2 5 -8 -4 -11 0 -15 11 -14 9 2 18 13 20 24 2 12 7 22 12 22 9 0 7
-61 -3 -77 -4 -6 0 -13 8 -17 10 -3 15 1 15 14 0 28 18 34 45 16 28 -18 30
-44 13 -154 -10 -61 -11 -62 -29 -46 -11 9 -19 12 -19 6 0 -6 6 -12 13 -15 10
-4 10 -7 0 -18 -7 -7 -13 -17 -13 -23 0 -5 7 -1 16 10 14 18 15 18 8 -6 -11
-42 -34 -81 -52 -88 -9 -4 -17 -13 -17 -21 0 -8 -6 -16 -14 -19 -9 -3 -11 0
-6 9 5 8 0 6 -12 -4 -11 -9 -24 -17 -30 -17 -6 0 -14 -11 -17 -24 -4 -17 -18
-28 -48 -39 -24 -8 -50 -18 -58 -21 -9 -4 -20 2 -28 14 -11 17 -10 23 3 36 18
18 19 30 3 40 -8 5 -9 2 -5 -9 5 -14 2 -16 -21 -11 -15 3 -22 2 -16 -3 19 -14
25 -60 10 -72 -18 -15 -156 -13 -156 3 0 6 -4 5 -9 -3 -5 -7 -14 -10 -20 -7
-6 4 -8 12 -5 18 4 5 -4 3 -17 -5 -17 -10 -53 -15 -119 -15 -91 0 -120 7 -120
32 0 8 3 8 8 0 13 -19 40 -24 46 -8 3 8 1 12 -4 9 -5 -3 -20 1 -34 10 -22 14
-24 14 -30 -1 -3 -9 -2 -22 4 -29 7 -9 2 -12 -20 -13 -16 0 -32 4 -35 9 -4 5
-11 9 -16 9 -6 0 -7 -4 -4 -10 4 -6 -7 -10 -24 -10 -18 0 -31 5 -32 13 0 9 -2
9 -6 0 -2 -7 -17 -13 -31 -13 -26 1 -26 1 -8 15 17 13 17 15 4 15 -9 0 -23 -7
-32 -15 -19 -20 -27 -19 -20 3 5 15 4 15 -5 1 -7 -12 -24 -14 -72 -12 -34 2
-65 5 -67 8 -3 3 1 23 8 45 8 23 16 36 20 29 11 -17 18 37 7 56 -6 12 -5 20 4
27 11 7 11 11 2 15 -15 6 -17 39 -3 48 6 3 10 14 10 23 0 11 -3 13 -8 5 -4 -6
-8 11 -9 38 -2 36 1 49 12 49 8 0 16 4 19 9 4 5 -3 7 -14 4 -18 -5 -20 0 -20
45 0 28 5 54 10 57 6 3 10 11 10 16 0 6 -4 7 -10 4 -18 -11 -11 14 8 25 14 10
14 11 1 6 -15 -4 -17 8 -17 112 0 64 4 125 10 136 8 15 8 21 -1 24 -15 5 -14
59 2 65 8 4 9 8 1 14 -5 4 -11 46 -11 91 -2 80 -1 83 16 68 18 -17 51 -22 51
-8 0 4 -9 8 -20 9 -11 1 -28 10 -38 19 -16 17 -16 18 0 11 10 -3 28 -2 40 3
25 10 17 13 -24 10 -26 -1 -28 1 -28 34 0 34 2 36 32 36 34 0 31 12 -4 17 -28
4 -27 2 -18 51 4 23 4 42 -1 42 -4 0 -11 17 -14 38 -3 20 -10 52 -16 70 -12
38 -4 57 9 21 l9 -24 8 24 c4 15 10 20 17 13 6 -6 22 -7 45 0 19 5 41 7 49 4
8 -3 14 -2 14 2 0 4 22 6 50 5 27 -1 52 3 55 8 10 15 28 10 21 -6z m675 -88
c-13 -13 -26 -3 -16 12 3 6 11 8 17 5 6 -4 6 -10 -1 -17z m149 -808 c0 -6 -4
-7 -10 -4 -5 3 -10 11 -10 16 0 6 5 7 10 4 6 -3 10 -11 10 -16z m-90 -423 c0
-3 -4 -8 -10 -11 -5 -3 -10 -1 -10 4 0 6 5 11 10 11 6 0 10 -2 10 -4z"/>
<path d="M1543 2133 c-7 -2 -13 -12 -13 -20 0 -11 -7 -14 -25 -9 -18 5 -25 2
-25 -9 0 -8 -4 -15 -10 -15 -5 0 -7 6 -4 14 4 12 -4 15 -38 14 l-43 -1 33 -10
c17 -5 32 -16 32 -23 0 -8 7 -14 15 -14 8 0 15 -5 15 -11 0 -6 -9 -8 -20 -4
-11 4 -20 2 -20 -4 0 -6 3 -11 8 -12 55 -6 54 -6 49 18 -3 18 1 27 18 33 12 5
25 16 28 24 4 9 13 16 22 16 8 0 15 5 15 10 0 10 -16 12 -37 3z"/>
<path d="M1841 2116 c-9 -10 -9 -16 -1 -21 8 -5 8 -11 -1 -21 -16 -19 -4 -30
16 -14 11 9 12 16 5 25 -6 7 -8 20 -4 29 8 20 0 21 -15 2z"/>
<path d="M1282 2109 c2 -11 -8 -13 -47 -12 -36 2 -44 0 -29 -6 11 -5 38 -8 60
-7 25 1 43 -3 51 -14 11 -13 12 -12 13 7 0 12 6 23 12 25 7 3 2 7 -10 10 -12
4 -22 2 -22 -4 0 -6 -7 -5 -16 2 -12 11 -15 11 -12 -1z"/>
<path d="M1630 2112 c-14 -2 -30 -8 -37 -13 -7 -7 -13 -5 -17 3 -3 7 -4 4 -3
-7 2 -14 9 -19 22 -17 11 2 22 7 25 11 3 4 19 8 35 8 57 1 68 3 61 11 -8 7
-45 9 -86 4z"/>
<path d="M1740 2111 c0 -5 14 -15 30 -23 17 -7 30 -16 30 -20 0 -13 -18 -9
-34 8 -12 12 -16 12 -16 2 0 -10 -3 -9 -10 2 -7 11 -12 12 -20 4 -9 -9 -3 -14
20 -22 21 -8 30 -17 28 -28 -2 -9 3 -19 11 -22 9 -3 11 0 6 8 -6 9 -4 11 4 6
7 -5 10 -14 7 -22 -3 -8 -1 -14 4 -14 6 0 10 5 10 10 0 6 5 10 10 10 6 0 10
-7 10 -17 0 -9 2 -14 5 -11 3 2 -1 30 -7 61 -10 46 -15 56 -29 52 -10 -3 -19
1 -23 10 -6 16 -36 21 -36 6z"/>
<path d="M2030 2079 c0 -5 5 -7 10 -4 6 3 10 8 10 11 0 2 -4 4 -10 4 -5 0 -10
-5 -10 -11z"/>
<path d="M1187 2060 c4 -15 12 -19 30 -15 36 6 41 15 10 15 -15 0 -27 5 -27
10 0 6 -4 10 -9 10 -5 0 -7 -9 -4 -20z"/>
<path d="M1350 2065 c7 -9 16 -12 19 -7 3 5 13 12 21 15 8 3 0 6 -19 6 -29 1
-32 -1 -21 -14z"/>
<path d="M1410 2067 c0 -10 -6 -14 -15 -11 -8 4 -15 1 -15 -5 0 -13 29 -14 48
-2 10 6 10 10 -3 21 -12 10 -15 10 -15 -3z"/>
<path d="M1630 2067 c0 -5 -9 -5 -20 -2 -11 4 -20 2 -20 -4 0 -6 7 -11 15 -11
8 0 15 -5 15 -11 0 -6 -7 -8 -16 -5 -9 3 -20 6 -25 6 -6 0 -7 5 -4 10 3 6 1
10 -4 10 -6 0 -11 -4 -11 -9 0 -14 26 -32 35 -23 4 4 5 -6 2 -23 -5 -28 -4
-28 9 -10 12 16 16 17 23 6 6 -9 11 -10 15 -2 4 6 12 9 17 6 5 -4 9 -2 9 4 0
15 -18 23 -22 9 -2 -6 -10 -8 -17 -4 -9 6 -9 11 0 22 14 17 41 18 57 2 9 -9
12 -9 12 0 0 7 -4 12 -10 12 -5 0 -7 6 -4 14 4 9 -4 13 -25 12 -17 -1 -31 -5
-31 -9z"/>
<path d="M1278 2062 c-10 -2 -18 -7 -18 -12 0 -5 7 -7 15 -3 9 3 21 -2 28 -10
10 -14 14 -14 25 -1 11 12 10 14 -7 14 -11 0 -21 4 -23 8 -1 4 -11 6 -20 4z"/>
<path d="M1521 2061 c-7 -5 -11 -15 -9 -22 6 -17 -9 -49 -23 -49 -6 0 -7 6 -3
13 5 7 0 6 -11 -3 -18 -15 -18 -15 0 -19 11 -2 27 6 36 18 18 22 39 28 39 12
0 -5 -6 -12 -12 -14 -7 -3 -8 -6 -3 -6 6 0 17 3 25 9 12 7 10 12 -9 29 -13 12
-19 21 -13 21 7 0 12 5 12 10 0 12 -10 13 -29 1z"/>
<path d="M1715 2041 c3 -5 1 -12 -5 -16 -5 -3 -10 -10 -10 -15 0 -6 9 -2 19 7
20 16 19 33 0 33 -6 0 -8 -4 -4 -9z"/>
<path d="M1846 2042 c-3 -6 -1 -14 5 -17 15 -10 25 3 12 16 -7 7 -13 7 -17 1z"/>
<path d="M1347 2033 c-4 -3 -7 -11 -7 -17 0 -6 5 -4 10 4 8 13 10 12 10 -2 0
-10 -6 -18 -12 -19 -7 0 -2 -5 11 -10 13 -5 33 -7 45 -4 12 3 15 2 9 -1 -16
-7 -17 -24 -3 -24 17 0 24 31 9 40 -7 5 -10 12 -6 16 3 4 13 1 22 -6 9 -7 19
-10 22 -6 8 8 -15 26 -34 26 -6 0 -18 -7 -27 -15 -16 -16 -31 -20 -22 -6 7 11
-18 33 -27 24z"/>
<path d="M1924 2014 c-1 -13 2 -24 7 -24 5 0 9 5 9 10 0 6 7 10 15 10 8 0 15
5 15 11 0 6 -6 9 -14 6 -7 -3 -17 -2 -22 3 -5 5 -10 -2 -10 -16z"/>
<path d="M1180 2021 c0 -6 4 -13 10 -16 6 -3 7 1 4 9 -7 18 -14 21 -14 7z"/>
<path d="M1224 2022 c-7 -4 -8 -15 -3 -27 4 -11 8 -15 8 -8 1 6 8 19 17 27 11
12 12 16 2 16 -7 0 -18 -4 -24 -8z"/>
<path d="M1858 2008 c-9 -5 -6 -8 9 -8 12 0 24 4 27 8 7 11 -19 11 -36 0z"/>
<path d="M1307 1979 c-3 -12 -2 -30 2 -42 7 -17 8 -18 14 -4 4 10 2 17 -4 17
-5 0 -7 11 -3 25 3 14 4 25 1 25 -2 0 -7 -9 -10 -21z"/>
<path d="M1570 1983 c0 -9 -18 -13 -54 -13 -89 0 -86 4 -86 -132 0 -77 -4
-117 -10 -113 -5 3 -15 3 -21 -1 -8 -5 -8 -9 1 -14 10 -6 9 -15 -4 -40 -9 -18
-16 -35 -16 -38 0 -11 33 24 40 43 7 16 8 14 8 -12 -1 -21 -6 -33 -15 -33 -7
0 -13 -5 -13 -11 0 -6 7 -9 14 -6 10 4 18 -2 22 -16 4 -11 12 -26 18 -32 16
-16 86 -29 86 -16 0 6 10 6 30 0 17 -6 30 -15 30 -21 0 -5 4 -7 10 -3 5 3 6
13 3 22 -5 11 -3 14 6 9 7 -5 10 -17 8 -28 -4 -12 -1 -18 6 -15 7 2 11 14 10
26 -2 11 2 21 7 21 6 0 10 -5 10 -11 0 -5 5 -7 10 -4 6 3 10 2 10 -3 0 -6 -7
-12 -15 -16 -8 -3 -15 -12 -15 -21 0 -9 -9 -15 -22 -16 -21 0 -22 -1 -3 -8 19
-8 47 7 39 21 -2 4 5 13 16 21 11 7 17 17 13 20 -3 4 -2 7 4 7 17 0 22 -24 8
-37 -7 -6 -16 -9 -19 -6 -3 4 -6 1 -6 -5 0 -16 11 -15 34 3 11 8 16 20 12 30
-3 9 -2 14 3 10 18 -11 70 -12 74 -2 2 7 13 4 27 -6 30 -21 47 -22 30 -2 -12
15 -11 17 37 30 6 2 14 -3 17 -12 5 -11 1 -14 -13 -10 -13 3 -18 0 -16 -12 2
-18 45 -17 56 1 4 6 14 8 23 5 20 -8 21 6 2 22 -11 9 -15 9 -19 -1 -2 -7 -8
-10 -12 -6 -5 4 4 19 18 32 15 14 27 29 27 34 0 6 7 13 16 16 8 3 12 10 9 16
-3 5 3 10 14 10 12 0 21 5 21 10 0 6 -4 10 -10 10 -5 0 -10 9 -10 21 0 11 4
17 10 14 6 -4 7 11 3 42 -4 26 -8 60 -8 76 0 15 -2 27 -5 27 -3 0 -16 18 -30
39 -13 22 -28 38 -32 35 -4 -3 -8 0 -8 6 0 6 -5 8 -10 5 -6 -3 -13 0 -16 8 -6
15 -15 16 -204 17 -94 0 -136 4 -142 13 -6 9 -8 9 -8 0z m367 -59 c15 -11 38
-36 51 -54 46 -69 17 -198 -57 -247 -33 -22 -42 -23 -257 -23 l-224 0 0 176 0
175 229 -3 c215 -3 231 -4 258 -24z"/>
<path d="M1970 1980 c0 -5 7 -10 15 -10 8 0 15 5 15 10 0 6 -7 10 -15 10 -8 0
-15 -4 -15 -10z"/>
<path d="M2086 1967 c3 -10 9 -15 12 -12 3 3 0 11 -7 18 -10 9 -11 8 -5 -6z"/>
<path d="M1370 1960 c0 -5 5 -10 11 -10 5 0 7 5 4 10 -3 6 -8 10 -11 10 -2 0
-4 -4 -4 -10z"/>
<path d="M1210 1950 c-13 -8 -12 -10 3 -10 9 0 17 -7 17 -15 0 -8 5 -15 12
-15 6 0 8 3 5 7 -4 3 -1 13 6 21 10 13 9 14 -2 8 -7 -5 -16 -4 -20 2 -4 7 -12
8 -21 2z"/>
<path d="M2124 1944 c4 -10 -1 -25 -10 -35 -9 -10 -13 -22 -10 -28 8 -12 36
-3 36 11 0 5 -5 6 -11 3 -6 -4 -5 2 3 14 8 13 19 19 29 16 10 -3 19 1 23 10 3
8 1 15 -3 15 -5 0 -12 -6 -14 -12 -4 -10 -6 -10 -6 0 -1 7 -5 10 -11 7 -5 -3
-10 -1 -10 4 0 6 -5 11 -11 11 -6 0 -8 -7 -5 -16z"/>
<path d="M1335 1930 c-4 -6 -5 -12 -4 -13 2 -1 15 -8 27 -15 33 -18 37 -10 8
17 -16 15 -26 19 -31 11z"/>
<path d="M1400 1924 c0 -8 5 -12 10 -9 6 4 8 11 5 16 -9 14 -15 11 -15 -7z"/>
<path d="M1990 1928 c1 -15 24 -48 34 -48 3 0 6 7 6 16 0 8 -4 12 -10 9 -9 -6
-14 8 -11 28 0 4 -3 7 -9 7 -5 0 -10 -6 -10 -12z"/>
<path d="M2090 1930 c-13 -8 -13 -10 2 -10 9 0 20 5 23 10 8 13 -5 13 -25 0z"/>
<path d="M2200 1930 c0 -5 5 -10 10 -10 6 0 10 5 10 10 0 6 -4 10 -10 10 -5 0
-10 -4 -10 -10z"/>
<path d="M2056 1898 c3 -5 10 -6 15 -3 13 9 11 12 -6 12 -8 0 -12 -4 -9 -9z"/>
<path d="M2150 1906 c0 -2 7 -9 15 -16 9 -7 15 -8 15 -2 0 5 -7 12 -15 16 -8
3 -15 4 -15 2z"/>
<path d="M2196 1898 c3 -4 9 -8 15 -8 5 0 9 4 9 8 0 5 -7 9 -15 9 -8 0 -12 -4
-9 -9z"/>
<path d="M2232 1890 c0 -14 2 -19 5 -12 2 6 2 18 0 25 -3 6 -5 1 -5 -13z"/>
<path d="M1402 1883 c-10 -10 -24 -12 -45 -8 -30 6 -31 6 -12 -8 28 -19 75
-30 75 -17 0 6 -4 8 -10 5 -5 -3 -10 -2 -10 4 0 5 5 11 12 13 6 2 9 9 7 15 -3
7 -9 6 -17 -4z"/>
<path d="M1296 1874 c-8 -21 1 -34 22 -33 15 1 15 2 1 6 -11 3 -15 11 -12 24
6 23 -2 26 -11 3z"/>
<path d="M2071 1871 c-8 -5 -9 -11 -3 -15 5 -3 12 1 16 9 6 17 6 18 -13 6z"/>
<path d="M2118 1863 c-10 -2 -18 -8 -18 -13 0 -14 36 -18 60 -5 19 10 20 13 6
18 -9 4 -16 2 -16 -3 0 -6 -5 -10 -11 -10 -5 0 -7 5 -4 10 3 6 5 9 3 9 -2 -1
-11 -3 -20 -6z"/>
<path d="M1203 1843 c-15 -5 -17 -23 -4 -23 5 0 11 7 15 15 3 8 4 15 3 14 -1
0 -8 -3 -14 -6z"/>
<path d="M2201 1845 c1 -19 18 -51 18 -35 0 8 -4 22 -9 30 -5 8 -9 11 -9 5z"/>
<path d="M2054 1824 c3 -8 6 -18 6 -20 0 -3 5 -2 10 1 15 9 12 22 -6 29 -12 5
-15 2 -10 -10z"/>
<path d="M1330 1821 c0 -5 -8 -12 -17 -14 -14 -4 -12 -5 5 -6 13 -1 22 5 22
14 0 8 -2 15 -5 15 -3 0 -5 -4 -5 -9z"/>
<path d="M1350 1801 c0 -6 4 -13 10 -16 6 -3 7 1 4 9 -7 18 -14 21 -14 7z"/>
<path d="M2130 1796 c0 -2 7 -9 15 -16 9 -7 15 -8 15 -2 0 5 -7 12 -15 16 -8
3 -15 4 -15 2z"/>
<path d="M2185 1790 c3 -5 8 -10 11 -10 2 0 4 5 4 10 0 6 -5 10 -11 10 -5 0
-7 -4 -4 -10z"/>
<path d="M1301 1763 c0 -11 3 -13 6 -5 7 18 23 15 23 -5 0 -15 2 -16 10 -3 15
23 12 30 -15 30 -17 0 -25 -5 -24 -17z"/>
<path d="M2080 1765 c33 -19 46 -19 30 0 -7 8 -22 15 -34 15 -20 -1 -20 -2 4
-15z"/>
<path d="M1377 1743 c4 -9 10 -10 24 -2 25 13 24 17 -5 15 -14 0 -22 -6 -19
-13z"/>
<path d="M2080 1723 c-13 -15 -12 -16 4 -10 10 4 22 7 27 7 6 0 7 5 4 10 -9
14 -18 12 -35 -7z"/>
<path d="M1200 1720 c-9 -6 -10 -10 -3 -10 6 0 15 5 18 10 8 12 4 12 -15 0z"/>
<path d="M1296 1714 c-3 -8 -10 -12 -16 -9 -5 3 -10 1 -10 -4 0 -6 9 -11 20
-11 13 0 20 7 20 20 0 24 -6 26 -14 4z"/>
<path d="M1350 1720 c0 -5 5 -10 10 -10 6 0 10 5 10 10 0 6 -4 10 -10 10 -5 0
-10 -4 -10 -10z"/>
<path d="M1327 1713 c-4 -3 -7 -11 -7 -17 0 -6 5 -5 12 2 6 6 9 14 7 17 -3 3
-9 2 -12 -2z"/>
<path d="M1215 1700 c-3 -5 1 -10 10 -10 9 0 13 5 10 10 -3 6 -8 10 -10 10 -2
0 -7 -4 -10 -10z"/>
<path d="M2095 1690 c4 -6 11 -8 16 -5 14 9 11 15 -7 15 -8 0 -12 -5 -9 -10z"/>
<path d="M1200 1659 c0 -5 9 -9 20 -9 11 0 20 2 20 4 0 2 -9 6 -20 9 -11 3
-20 1 -20 -4z"/>
<path d="M1313 1645 c7 -13 14 -20 15 -14 5 14 -6 39 -17 39 -5 0 -4 -11 2
-25z"/>
<path d="M2050 1660 c0 -5 5 -10 10 -10 6 0 10 5 10 10 0 6 -4 10 -10 10 -5 0
-10 -4 -10 -10z"/>
<path d="M2120 1650 c0 -5 -3 -9 -7 -9 -20 3 -34 -2 -29 -10 8 -13 43 -2 50
15 3 8 1 14 -4 14 -6 0 -10 -4 -10 -10z"/>
<path d="M1287 1633 c-4 -3 -7 -11 -7 -17 0 -6 5 -5 12 2 6 6 9 14 7 17 -3 3
-9 2 -12 -2z"/>
<path d="M2030 1631 c0 -5 5 -13 10 -16 6 -3 10 -2 10 4 0 5 -4 13 -10 16 -5
3 -10 2 -10 -4z"/>
<path d="M1215 1620 c-3 -5 -2 -10 4 -10 5 0 13 5 16 10 3 6 2 10 -4 10 -5 0
-13 -4 -16 -10z"/>
<path d="M1330 1605 c-18 -22 -6 -30 15 -9 14 15 18 15 27 3 8 -12 9 -12 5 1
-5 21 -31 24 -47 5z"/>
<path d="M1994 1604 c3 -9 6 -19 6 -23 0 -4 9 -7 20 -8 11 -1 20 4 20 12 0 9
-6 12 -15 9 -9 -4 -15 0 -15 10 0 9 -5 16 -11 16 -6 0 -8 -7 -5 -16z"/>
<path d="M2110 1592 c0 -18 4 -32 8 -32 9 0 8 47 -1 57 -4 3 -7 -8 -7 -25z"/>
<path d="M1256 1599 c3 -6 0 -16 -6 -24 -18 -21 -3 -18 21 4 l20 18 -21 6
c-11 3 -17 1 -14 -4z"/>
<path d="M2053 1597 c-3 -7 -3 -9 2 -5 4 4 14 3 21 -3 7 -6 15 -6 18 -1 3 6
-3 12 -14 15 -11 3 -23 0 -27 -6z"/>
<path d="M1217 1589 c7 -7 15 -10 18 -7 3 3 -2 9 -12 12 -14 6 -15 5 -6 -5z"/>
<path d="M1390 1585 c-7 -9 -19 -14 -26 -11 -8 3 -11 0 -7 -10 3 -9 -1 -14
-12 -14 -20 0 -44 -27 -45 -49 0 -9 4 -11 13 -3 12 10 33 10 101 -3 36 -7 38
-7 27 13 -14 26 -14 45 -1 37 6 -3 10 -1 10 4 0 6 -4 11 -10 11 -5 0 -10 9
-10 20 0 24 -22 26 -40 5z m12 -24 c-12 -10 -22 -21 -22 -25 0 -13 23 -5 36
12 13 15 13 14 5 -8 -5 -14 -15 -23 -23 -21 -7 2 -28 3 -46 2 -21 -1 -31 2
-27 9 3 6 10 8 15 5 5 -3 24 8 42 24 18 16 35 27 37 25 2 -2 -6 -12 -17 -23z"/>
<path d="M1960 1580 c0 -5 5 -10 10 -10 6 0 10 5 10 10 0 6 -4 10 -10 10 -5 0
-10 -4 -10 -10z"/>
<path d="M1296 1565 c-3 -8 -1 -15 4 -15 6 0 10 7 10 15 0 8 -2 15 -4 15 -2 0
-6 -7 -10 -15z"/>
<path d="M1206 1556 c10 -8 21 -12 24 -10 5 6 -21 24 -34 24 -6 0 -1 -6 10
-14z"/>
<path d="M2006 1551 c-7 -10 49 -9 60 2 4 4 -7 7 -24 7 -17 0 -33 -4 -36 -9z"/>
<path d="M1258 1523 c6 -2 18 -2 25 0 6 3 1 5 -13 5 -14 0 -19 -2 -12 -5z"/>
<path d="M1480 1523 c0 -5 4 -14 9 -21 7 -11 9 -11 14 1 3 8 3 18 0 21 -9 8
-23 7 -23 -1z"/>
<path d="M1558 1523 c7 -3 16 -2 19 1 4 3 -2 6 -13 5 -11 0 -14 -3 -6 -6z"/>
<path d="M2025 1509 c-5 -16 -10 -18 -20 -9 -18 15 -36 4 -28 -17 5 -13 2 -15
-11 -10 -14 5 -17 3 -12 -8 3 -9 0 -15 -9 -15 -7 0 -16 8 -18 18 -4 13 -5 11
-6 -5 0 -13 -7 -23 -15 -23 -7 0 -19 -6 -25 -14 -9 -10 -8 -15 3 -19 11 -4 13
-1 9 10 -5 12 -2 15 10 10 10 -4 17 -2 17 4 0 7 11 9 24 7 18 -4 26 0 29 14 6
20 53 26 59 8 2 -6 4 7 4 30 2 45 -1 50 -11 19z"/>
<path d="M1752 1500 c-6 -14 -11 -20 -11 -13 -1 14 -25 7 -56 -15 -19 -13 -19
-14 7 -8 20 5 33 1 48 -14 20 -20 46 -28 36 -11 -4 5 -2 11 4 13 6 2 6 8 0 18
-9 13 -10 13 -10 -1 0 -9 -7 -16 -15 -16 -19 0 -19 6 1 28 9 10 14 24 11 31
-3 8 -9 4 -15 -12z"/>
<path d="M1230 1500 c8 -5 24 -9 35 -9 l20 0 -20 9 c-11 5 -27 9 -35 9 -13 1
-13 0 0 -9z"/>
<path d="M1910 1500 c-13 -8 -13 -10 2 -10 9 0 20 5 23 10 8 13 -5 13 -25 0z"/>
<path d="M1836 1484 c-9 -8 -20 -12 -26 -9 -5 3 -10 2 -10 -4 0 -21 22 -22 41
0 10 12 19 17 19 11 0 -6 8 -9 18 -6 11 4 7 -4 -11 -20 -34 -31 -21 -35 17 -5
25 20 26 22 9 35 -24 18 -38 17 -57 -2z"/>
<path d="M1326 1473 c3 -15 1 -23 -7 -23 -9 0 -10 -3 -2 -11 7 -7 18 -3 37 16
15 15 24 30 20 34 -4 3 -9 0 -11 -6 -3 -7 -11 -13 -18 -13 -7 0 -16 6 -19 13
-3 6 -3 2 0 -10z"/>
<path d="M1393 1475 c5 -12 1 -18 -13 -22 -25 -7 -26 -23 -1 -30 10 -3 23 -14
29 -26 l11 -22 0 23 c1 12 -6 25 -14 28 -21 8 -19 23 3 19 9 -2 20 -4 25 -4 4
-1 7 -8 7 -16 0 -8 4 -15 9 -15 11 0 24 31 16 38 -3 3 -5 0 -5 -7 0 -7 -5 -9
-11 -6 -6 4 -8 14 -4 23 3 9 3 13 -1 9 -4 -4 -19 0 -32 9 -23 15 -25 15 -19
-1z"/>
<path d="M1580 1480 c0 -5 5 -10 11 -10 5 0 7 5 4 10 -3 6 -8 10 -11 10 -2 0
-4 -4 -4 -10z"/>
<path d="M1190 1471 c0 -5 5 -13 10 -16 6 -3 10 -2 10 4 0 5 -4 13 -10 16 -5
3 -10 2 -10 -4z"/>
<path d="M1475 1470 c-3 -5 -1 -10 4 -10 6 0 11 -9 11 -20 0 -11 -4 -20 -10
-20 -5 0 -10 -12 -10 -26 0 -19 -4 -25 -14 -21 -8 3 -17 1 -19 -6 -3 -9 -8 -8
-21 3 -21 17 -46 22 -46 9 0 -11 -11 -11 -29 0 -12 7 -12 13 -3 24 10 11 7 14
-13 13 -27 -2 -47 -16 -22 -16 16 0 21 -13 20 -47 -1 -7 3 -13 9 -13 5 0 7 -4
3 -10 -3 -5 -12 -7 -20 -3 -8 3 -15 0 -15 -7 0 -6 10 -10 23 -8 17 2 21 9 19
27 -2 21 1 23 29 17 17 -3 38 -6 45 -6 11 0 14 -28 12 -147 -1 -82 -3 -122 -5
-90 -2 33 -8 55 -14 52 -5 -4 -9 -1 -9 6 0 7 -3 9 -6 6 -4 -4 -1 -14 7 -23 11
-14 10 -17 -4 -25 -21 -12 -22 -29 -1 -29 9 0 14 -6 11 -12 -2 -7 -10 -12 -17
-10 -11 3 -11 0 0 -13 7 -8 15 -32 17 -53 2 -20 8 -38 13 -40 6 -2 7 -15 4
-28 -5 -20 -3 -23 12 -18 16 6 17 5 7 -7 -20 -20 -16 -27 13 -21 19 3 25 1 20
-7 -4 -6 0 -19 9 -28 13 -12 16 -13 15 -2 -5 31 1 39 28 39 15 0 33 -5 40 -12
9 -9 12 -9 12 1 0 8 11 11 33 9 20 -2 31 -8 29 -16 -1 -8 2 -11 8 -7 6 3 8 10
6 14 -3 4 32 8 79 9 65 0 83 -3 79 -12 -3 -8 3 -16 12 -20 21 -8 33 2 15 13
-10 7 -9 10 3 14 10 4 16 1 16 -8 0 -21 13 -19 29 4 8 11 20 17 28 14 7 -3 25
2 39 12 20 13 28 14 40 4 8 -6 14 -8 14 -4 0 4 -8 14 -17 22 -10 8 -12 12 -5
8 6 -3 12 -1 12 5 0 7 8 9 20 5 14 -5 20 -2 20 10 0 9 -4 13 -10 10 -5 -3 -10
0 -10 8 0 8 7 18 16 21 8 3 12 10 9 16 -3 6 0 17 8 24 23 23 12 149 -19 213
-14 28 -32 54 -40 57 -9 3 -12 11 -8 17 4 8 3 9 -4 5 -12 -7 -51 14 -89 47
-12 11 -27 16 -34 12 -8 -5 -10 -4 -5 3 5 8 -4 12 -28 12 -20 0 -36 5 -36 10
0 6 5 10 10 10 6 0 10 5 10 10 0 18 -18 11 -25 -9 -4 -13 -12 -18 -22 -14 -11
4 -14 3 -9 -6 4 -6 13 -10 19 -9 21 4 67 -12 67 -23 0 -7 -7 -8 -17 -4 -10 4
-35 8 -56 9 -33 1 -37 4 -33 22 6 22 -25 60 -37 47 -12 -11 -8 -24 6 -21 16 4
17 -10 5 -42 -6 -14 -12 -20 -15 -13 -4 11 -22 11 -90 -3 -13 -2 -23 0 -23 6
0 5 3 9 8 9 20 -3 30 3 35 21 3 13 0 20 -9 20 -8 0 -14 -6 -14 -14 0 -18 -23
-27 -41 -15 -13 8 -6 13 14 10 4 0 7 4 7 9 0 16 -12 12 -53 -16 -37 -25 -56
-27 -42 -5 3 6 11 8 17 5 7 -5 9 -1 5 9 -5 12 -1 17 13 17 14 0 20 6 19 23 -1
16 -2 18 -6 5 -5 -22 -33 -24 -33 -4 0 19 -17 29 -25 16z m92 -86 c-3 -3 -12
-4 -19 -1 -8 3 -5 6 6 6 11 1 17 -2 13 -5z m335 -34 c85 -24 140 -105 141
-205 1 -86 -32 -151 -92 -182 -42 -22 -54 -23 -273 -23 l-228 0 0 210 0 210
208 0 c114 0 224 -5 244 -10z m-475 -352 c-3 -8 -6 -5 -6 6 -1 11 2 17 5 13 3
-3 4 -12 1 -19z"/>
<path d="M1985 1430 c-3 -11 -12 -20 -18 -21 -7 0 -1 -5 12 -10 18 -7 26 -5
36 8 8 10 11 20 9 22 -2 3 -11 -4 -19 -15 -17 -22 -20 -12 -5 17 7 12 7 19 1
19 -5 0 -13 -9 -16 -20z"/>
<path d="M1647 1422 c1 -8 3 -15 3 -18 0 -2 7 -1 15 2 8 4 15 13 15 21 0 12
-3 13 -14 4 -8 -7 -16 -8 -18 -4 -3 4 -3 2 -1 -5z"/>
<path d="M2067 1421 c3 -12 9 -21 14 -21 14 0 11 16 -5 29 -12 10 -13 8 -9 -8z"/>
<path d="M1241 1421 c-8 -6 -9 -11 -3 -15 6 -3 14 -1 17 5 9 14 2 20 -14 10z"/>
<path d="M1190 1400 c0 -6 4 -9 9 -5 6 3 15 -3 21 -12 10 -17 11 -16 8 2 -3
21 -38 35 -38 15z"/>
<path d="M1906 1394 c-5 -13 -3 -14 6 -7 7 6 20 13 28 16 10 4 8 6 -6 6 -12 1
-25 -6 -28 -15z"/>
<path d="M2030 1383 c0 -13 5 -23 10 -23 13 0 13 11 0 30 -8 12 -10 11 -10 -7z"/>
<path d="M1936 1380 c-11 -3 -15 -9 -10 -12 5 -3 18 -2 28 2 11 3 15 9 10 12
-5 3 -18 2 -28 -2z"/>
<path d="M1225 1340 c-3 -6 1 -7 9 -4 18 7 21 14 7 14 -6 0 -13 -4 -16 -10z"/>
<path d="M2041 1335 c0 -11 11 -28 24 -38 14 -10 25 -13 25 -8 0 5 -4 13 -10
16 -5 3 -10 11 -10 17 0 6 9 3 20 -7 11 -10 23 -15 28 -10 4 4 1 10 -5 12 -7
3 -13 11 -13 18 0 19 -40 14 -41 -5 0 -10 -3 -9 -9 5 l-9 20 0 -20z"/>
<path d="M1373 1332 c-6 -4 -11 -16 -10 -27 2 -15 -3 -19 -21 -18 -13 2 -21
-1 -18 -6 4 -5 0 -12 -6 -15 -7 -3 0 -3 17 0 16 3 33 10 36 16 4 6 12 7 18 4
6 -4 9 -12 6 -17 -4 -5 -1 -9 5 -9 6 0 8 -5 5 -10 -3 -6 -17 -7 -30 -4 -12 3
-25 2 -28 -3 -3 -5 12 -10 34 -10 24 -1 39 2 39 10 0 25 -13 57 -20 52 -10 -6
-22 24 -14 36 6 11 3 11 -13 1z"/>
<path d="M1405 1330 c3 -5 8 -10 11 -10 2 0 4 5 4 10 0 6 -5 10 -11 10 -5 0
-7 -4 -4 -10z"/>
<path d="M2150 1320 c8 -6 24 -15 35 -21 16 -8 15 -6 -4 10 -13 12 -28 21 -35
21 -6 0 -4 -5 4 -10z"/>
<path d="M1235 1270 c-3 -5 -1 -10 4 -10 6 0 11 5 11 10 0 6 -2 10 -4 10 -3 0
-8 -4 -11 -10z"/>
<path d="M2094 1248 c-3 -4 2 -8 10 -8 9 0 16 -6 16 -12 0 -9 4 -8 10 2 5 8
10 17 10 20 0 9 -41 7 -46 -2z"/>
<path d="M1255 1231 c-3 -5 -1 -12 4 -15 5 -3 11 1 15 9 6 16 -9 21 -19 6z"/>
<path d="M1290 1210 c0 -19 3 -21 12 -12 9 9 9 15 0 24 -9 9 -12 7 -12 -12z"/>
<path d="M1326 1217 c3 -8 -2 -22 -11 -31 -18 -18 -19 -18 13 -21 16 -2 20 1
13 8 -14 14 5 38 25 30 8 -3 14 0 14 7 0 6 -8 10 -17 8 -10 -1 -24 1 -30 5 -9
5 -11 3 -7 -6z"/>
<path d="M2097 1209 c4 -13 8 -18 11 -10 2 7 -1 18 -6 23 -8 8 -9 4 -5 -13z"/>
<path d="M2268 1198 c9 -9 15 -9 24 0 9 9 7 12 -12 12 -19 0 -21 -3 -12 -12z"/>
<path d="M2180 1190 c8 -5 20 -10 25 -10 6 0 3 5 -5 10 -8 5 -19 10 -25 10 -5
0 -3 -5 5 -10z"/>
<path d="M1210 1179 c0 -5 5 -7 10 -4 6 3 10 8 10 11 0 2 -4 4 -10 4 -5 0 -10
-5 -10 -11z"/>
<path d="M2130 1185 c0 -2 9 -9 20 -15 16 -9 18 -8 14 5 -5 13 -34 22 -34 10z"/>
<path d="M1251 1164 c0 -11 3 -14 6 -6 3 7 2 16 -1 19 -3 4 -6 -2 -5 -13z"/>
<path d="M2260 1169 c0 -7 -10 -9 -26 -5 -20 5 -24 3 -22 -11 2 -11 -3 -18
-14 -18 -23 0 -32 -11 -14 -18 8 -3 24 3 36 13 12 10 35 22 52 25 23 5 27 9
17 16 -19 12 -29 11 -29 -2z"/>
<path d="M1190 1150 c0 -5 5 -10 11 -10 5 0 7 5 4 10 -3 6 -8 10 -11 10 -2 0
-4 -4 -4 -10z"/>
<path d="M1266 1131 c-3 -5 1 -14 8 -20 12 -10 13 -8 9 8 -6 23 -9 25 -17 12z"/>
<path d="M1305 1128 c11 -6 22 -15 25 -19 3 -4 12 -4 20 1 13 8 12 10 -2 10
-10 0 -18 4 -18 8 0 4 -10 8 -22 9 -22 2 -22 2 -3 -9z"/>
<path d="M2083 1132 c-8 -5 -7 -11 3 -19 15 -14 27 -3 16 14 -4 7 -13 9 -19 5z"/>
<path d="M2235 1120 c-27 -30 -12 -34 15 -5 13 14 19 25 13 25 -5 0 -18 -9
-28 -20z"/>
<path d="M1190 1120 c0 -5 5 -10 11 -10 5 0 7 5 4 10 -3 6 -8 10 -11 10 -2 0
-4 -4 -4 -10z"/>
<path d="M2123 1105 c5 -11 1 -23 -10 -32 -16 -13 -16 -13 5 -3 24 12 29 34
10 46 -8 5 -9 2 -5 -11z"/>
<path d="M2267 1113 c-4 -3 -7 -11 -7 -17 0 -6 5 -5 12 2 6 6 9 14 7 17 -3 3
-9 2 -12 -2z"/>
<path d="M1250 1092 c0 -6 9 -12 20 -15 11 -3 20 -3 20 -1 0 2 -9 8 -20 14
-11 6 -20 7 -20 2z"/>
<path d="M1347 1086 c-10 -8 -13 -16 -8 -17 6 -2 8 -14 5 -27 -6 -19 -9 -21
-23 -10 -14 12 -14 11 -2 -4 14 -19 47 -25 36 -8 -4 6 -2 17 5 25 8 9 8 15 0
20 -8 5 -8 11 1 21 14 18 9 17 -14 0z"/>
<path d="M2180 1091 c0 -5 7 -11 15 -15 8 -3 15 -1 15 3 0 5 -7 11 -15 15 -8
3 -15 1 -15 -3z"/>
<path d="M2080 1079 c0 -5 5 -7 10 -4 6 3 10 8 10 11 0 2 -4 4 -10 4 -5 0 -10
-5 -10 -11z"/>
<path d="M2150 1080 c0 -5 5 -10 10 -10 6 0 10 5 10 10 0 6 -4 10 -10 10 -5 0
-10 -4 -10 -10z"/>
<path d="M2256 1061 c-4 -5 3 -7 16 -3 14 3 19 2 14 -6 -4 -7 -2 -12 4 -12 17
0 6 24 -12 28 -9 2 -19 -1 -22 -7z"/>
<path d="M2130 1045 c0 -8 4 -15 10 -15 5 0 7 7 4 15 -4 8 -8 15 -10 15 -2 0
-4 -7 -4 -15z"/>
<path d="M2088 1023 c7 -3 16 -2 19 1 4 3 -2 6 -13 5 -11 0 -14 -3 -6 -6z"/>
<path d="M2204 1012 c0 -9 -5 -16 -11 -14 -7 1 -13 -2 -13 -6 0 -5 15 -8 34
-8 35 1 38 14 7 33 -15 10 -18 9 -17 -5z"/>
<path d="M1260 984 c0 -8 5 -12 10 -9 6 4 8 11 5 16 -9 14 -15 11 -15 -7z"/>
<path d="M1300 990 c-8 -5 -12 -12 -9 -15 4 -3 12 1 19 10 14 17 11 19 -10 5z"/>
<path d="M2115 990 c4 -6 1 -18 -6 -26 -10 -12 -9 -13 3 -9 8 3 21 -1 28 -10
7 -8 17 -15 22 -15 5 0 0 10 -12 22 -11 12 -20 28 -20 35 0 7 -5 13 -11 13 -5
0 -7 -5 -4 -10z"/>
<path d="M1325 959 c-16 -10 -26 -19 -22 -19 11 0 67 29 67 35 0 9 -15 4 -45
-16z"/>
<path d="M1383 952 c-1 -22 0 -24 9 -8 6 10 6 22 2 26 -5 5 -10 -3 -11 -18z"/>
<path d="M1203 944 c9 -12 14 -24 10 -27 -3 -4 -1 -7 5 -7 22 0 19 15 -7 34
-26 20 -26 20 -8 0z"/>
<path d="M1281 934 c0 -11 3 -14 6 -6 3 7 2 16 -1 19 -3 4 -6 -2 -5 -13z"/>
<path d="M1333 933 c-7 -2 -13 -11 -13 -18 0 -7 -6 -16 -12 -18 -8 -3 -6 -6 5
-6 9 -1 17 6 17 14 0 8 7 15 15 15 8 0 15 5 15 10 0 11 -7 12 -27 3z"/>
<path d="M2035 931 c-3 -5 -1 -12 5 -16 5 -3 10 1 10 9 0 18 -6 21 -15 7z"/>
<path d="M2106 923 c5 -5 12 -12 16 -18 4 -6 8 -2 8 8 0 9 -7 17 -17 17 -9 0
-12 -3 -7 -7z"/>
<path d="M1970 899 c0 -5 5 -7 10 -4 6 3 10 8 10 11 0 2 -4 4 -10 4 -5 0 -10
-5 -10 -11z"/>
<path d="M2132 894 c-7 -7 -12 -19 -12 -26 1 -8 6 -6 14 5 9 12 16 14 21 7 7
-11 25 -4 25 9 0 15 -35 18 -48 5z"/>
<path d="M1346 891 c-3 -5 1 -11 9 -15 8 -3 15 -1 15 4 0 13 -18 22 -24 11z"/>
<path d="M1380 880 c0 -5 7 -10 16 -10 8 0 12 5 9 10 -3 6 -10 10 -16 10 -5 0
-9 -4 -9 -10z"/>
<path d="M1300 870 c0 -5 5 -10 10 -10 6 0 10 5 10 10 0 6 -4 10 -10 10 -5 0
-10 -4 -10 -10z"/>
<path d="M1520 870 c0 -3 5 -12 10 -20 8 -13 10 -13 10 2 0 9 6 18 13 21 6 3
2 4 -10 4 -13 -1 -23 -4 -23 -7z"/>
<path d="M1868 850 c-29 -31 -35 -50 -18 -50 6 0 10 9 10 20 0 11 5 20 11 20
7 0 18 8 25 18 12 16 13 15 14 -8 1 -23 2 -23 9 -5 18 44 -13 47 -51 5z"/>
<path d="M1970 871 c0 -5 5 -13 10 -16 6 -3 10 -2 10 4 0 5 -4 13 -10 16 -5 3
-10 2 -10 -4z"/>
<path d="M2010 870 c8 -5 11 -10 7 -10 -4 0 -2 -6 5 -14 16 -16 38 -10 38 11
0 13 -2 13 -17 2 -15 -12 -16 -12 -10 4 5 13 1 17 -16 17 -18 0 -19 -2 -7 -10z"/>
<path d="M2080 860 c0 -11 4 -20 9 -20 5 0 7 9 4 20 -3 11 -7 20 -9 20 -2 0
-4 -9 -4 -20z"/>
<path d="M1430 850 c0 -5 5 -10 10 -10 6 0 10 5 10 10 0 6 -4 10 -10 10 -5 0
-10 -4 -10 -10z"/>
<path d="M1685 840 c-16 -11 -25 -20 -19 -20 11 0 64 39 54 40 -3 0 -18 -9
-35 -20z"/>
<path d="M1811 824 c0 -11 3 -14 6 -6 3 7 2 16 -1 19 -3 4 -6 -2 -5 -13z"/>
<path d="M1346 817 c3 -10 9 -15 12 -12 3 3 0 11 -7 18 -10 9 -11 8 -5 -6z"/>
<path d="M1268 813 c-10 -2 -18 -8 -18 -13 0 -4 9 -6 20 -3 11 3 20 9 20 14 0
5 -1 8 -2 8 -2 -1 -11 -3 -20 -6z"/>
<path d="M1430 810 c0 -25 16 -44 25 -30 4 7 0 19 -9 28 -13 14 -16 14 -16 2z"/>
<path d="M1640 805 c0 -8 7 -15 16 -15 14 0 14 3 4 15 -7 8 -14 15 -16 15 -2
0 -4 -7 -4 -15z"/>
<path d="M1930 810 c0 -5 5 -10 10 -10 6 0 10 5 10 10 0 6 -4 10 -10 10 -5 0
-10 -4 -10 -10z"/>
<path d="M2030 808 c0 -4 4 -8 9 -8 6 0 12 4 15 8 3 5 -1 9 -9 9 -8 0 -15 -4
-15 -9z"/>
<path d="M1535 800 c3 -5 11 -10 16 -10 6 0 7 5 4 10 -3 6 -11 10 -16 10 -6 0
-7 -4 -4 -10z"/>
<path d="M1488 793 c-10 -2 -18 -9 -18 -14 0 -6 8 -5 20 1 11 6 20 13 20 15 0
3 -1 4 -2 4 -2 -1 -11 -3 -20 -6z"/>
<path d="M1776 785 c-3 -8 -1 -15 4 -15 13 0 22 18 11 24 -5 3 -11 -1 -15 -9z"/>
<path d="M1907 784 c3 -7 9 -14 14 -14 14 0 10 17 -5 23 -10 4 -13 1 -9 -9z"/>
<path d="M1610 780 c0 -5 5 -10 11 -10 5 0 7 5 4 10 -3 6 -8 10 -11 10 -2 0
-4 -4 -4 -10z"/>
<path d="M1700 771 c0 -11 4 -22 9 -25 4 -3 6 6 3 19 -5 30 -12 33 -12 6z"/>
<path d="M1810 779 c0 -5 5 -7 10 -4 6 3 10 8 10 11 0 2 -4 4 -10 4 -5 0 -10
-5 -10 -11z"/>
<path d="M1956 775 c4 -8 8 -15 10 -15 2 0 4 7 4 15 0 8 -4 15 -10 15 -5 0 -7
-7 -4 -15z"/>
<path d="M1407 773 c-4 -3 -7 -11 -7 -17 0 -6 5 -5 12 2 6 6 9 14 7 17 -3 3
-9 2 -12 -2z"/>
<path d="M1670 770 c0 -5 5 -10 11 -10 5 0 7 5 4 10 -3 6 -8 10 -11 10 -2 0
-4 -4 -4 -10z"/>
<path d="M1870 769 c0 -5 5 -7 10 -4 6 3 10 8 10 11 0 2 -4 4 -10 4 -5 0 -10
-5 -10 -11z"/>
<path d="M2020 770 c0 -5 5 -10 11 -10 5 0 7 5 4 10 -3 6 -8 10 -11 10 -2 0
-4 -4 -4 -10z"/>
<path d="M1935 750 c3 -5 8 -10 11 -10 2 0 4 5 4 10 0 6 -5 10 -11 10 -5 0 -7
-4 -4 -10z"/>
<path d="M2040 2550 c0 -5 5 -10 10 -10 6 0 10 5 10 10 0 6 -4 10 -10 10 -5 0
-10 -4 -10 -10z"/>
<path d="M2010 2530 c-9 -6 -10 -10 -3 -10 6 0 15 5 18 10 8 12 4 12 -15 0z"/>
<path d="M1141 2474 c0 -11 3 -14 6 -6 3 7 2 16 -1 19 -3 4 -6 -2 -5 -13z"/>
<path d="M1115 2450 c-3 -5 -1 -10 4 -10 6 0 11 5 11 10 0 6 -2 10 -4 10 -3 0
-8 -4 -11 -10z"/>
<path d="M2250 2440 c-8 -5 -10 -10 -5 -10 6 0 17 5 25 10 8 5 11 10 5 10 -5
0 -17 -5 -25 -10z"/>
<path d="M1016 2383 c-6 -14 -5 -15 5 -6 7 7 10 15 7 18 -3 3 -9 -2 -12 -12z"/>
<path d="M2341 2364 c0 -11 3 -14 6 -6 3 7 2 16 -1 19 -3 4 -6 -2 -5 -13z"/>
<path d="M2365 2370 c3 -5 8 -10 11 -10 2 0 4 5 4 10 0 6 -5 10 -11 10 -5 0
-7 -4 -4 -10z"/>
<path d="M2380 2330 c0 -5 5 -10 10 -10 6 0 10 5 10 10 0 6 -4 10 -10 10 -5 0
-10 -4 -10 -10z"/>
<path d="M2480 2260 c0 -5 5 -10 11 -10 5 0 7 5 4 10 -3 6 -8 10 -11 10 -2 0
-4 -4 -4 -10z"/>
<path d="M755 2159 c-11 -17 1 -21 15 -4 8 9 8 15 2 15 -6 0 -14 -5 -17 -11z"/>
<path d="M2590 2139 c0 -5 5 -7 10 -4 6 3 10 8 10 11 0 2 -4 4 -10 4 -5 0 -10
-5 -10 -11z"/>
<path d="M726 2125 c-3 -8 -1 -15 4 -15 13 0 22 18 11 24 -5 3 -11 -1 -15 -9z"/>
<path d="M700 2086 c0 -2 7 -7 16 -10 8 -3 12 -2 9 4 -6 10 -25 14 -25 6z"/>
<path d="M661 1994 c0 -11 3 -14 6 -6 3 7 2 16 -1 19 -3 4 -6 -2 -5 -13z"/>
<path d="M715 2000 c-3 -5 -1 -10 4 -10 6 0 11 5 11 10 0 6 -2 10 -4 10 -3 0
-8 -4 -11 -10z"/>
<path d="M626 1965 c-3 -8 -1 -15 4 -15 6 0 10 7 10 15 0 8 -2 15 -4 15 -2 0
-6 -7 -10 -15z"/>
<path d="M2702 1855 c2 -1 13 -8 26 -14 18 -9 22 -9 22 2 0 9 -10 15 -25 15
-14 0 -25 -2 -23 -3z"/>
<path d="M600 1830 c0 -5 5 -10 10 -10 6 0 10 5 10 10 0 6 -4 10 -10 10 -5 0
-10 -4 -10 -10z"/>
<path d="M555 1809 c-4 -6 -5 -12 -2 -15 2 -3 7 2 10 11 7 17 1 20 -8 4z"/>
<path d="M545 1650 c3 -5 8 -10 11 -10 2 0 4 5 4 10 0 6 -5 10 -11 10 -5 0 -7
-4 -4 -10z"/>
<path d="M2800 1606 c0 -2 7 -6 15 -10 8 -3 15 -1 15 4 0 6 -7 10 -15 10 -8 0
-15 -2 -15 -4z"/>
<path d="M535 1590 c-3 -6 1 -7 9 -4 18 7 21 14 7 14 -6 0 -13 -4 -16 -10z"/>
<path d="M560 1490 c0 -5 5 -10 11 -10 5 0 7 5 4 10 -3 6 -8 10 -11 10 -2 0
-4 -4 -4 -10z"/>
<path d="M556 1451 c-4 -7 -5 -15 -2 -18 9 -9 19 4 14 18 -4 11 -6 11 -12 0z"/>
<path d="M2756 1285 c3 -7 12 -16 19 -19 9 -3 12 0 9 9 -3 7 -12 16 -19 19 -9
3 -12 0 -9 -9z"/>
<path d="M535 1270 c3 -5 10 -10 16 -10 5 0 9 5 9 10 0 6 -7 10 -16 10 -8 0
-12 -4 -9 -10z"/>
<path d="M568 1093 c7 -3 16 -2 19 1 4 3 -2 6 -13 5 -11 0 -14 -3 -6 -6z"/>
<path d="M2821 1044 c0 -11 3 -14 6 -6 3 7 2 16 -1 19 -3 4 -6 -2 -5 -13z"/>
<path d="M595 1040 c-3 -5 -1 -10 5 -10 6 0 8 -4 5 -10 -3 -5 -1 -10 4 -10 13
0 14 27 2 35 -5 3 -12 1 -16 -5z"/>
<path d="M2760 991 c0 -6 4 -13 10 -16 6 -3 7 1 4 9 -7 18 -14 21 -14 7z"/>
<path d="M2696 898 c3 -4 9 -8 15 -8 5 0 9 4 9 8 0 5 -7 9 -15 9 -8 0 -12 -4
-9 -9z"/>
<path d="M2773 895 c-3 -9 -3 -18 -1 -21 3 -3 8 4 11 16 6 23 -1 27 -10 5z"/>
<path d="M2681 874 c0 -11 3 -14 6 -6 3 7 2 16 -1 19 -3 4 -6 -2 -5 -13z"/>
<path d="M710 705 c0 -8 2 -15 4 -15 2 0 6 7 10 15 3 8 1 15 -4 15 -6 0 -10
-7 -10 -15z"/>
<path d="M846 585 c10 -8 23 -15 28 -15 6 0 1 7 -10 15 -10 8 -23 15 -28 15
-6 0 -1 -7 10 -15z"/>
<path d="M2408 543 c7 -3 16 -2 19 1 4 3 -2 6 -13 5 -11 0 -14 -3 -6 -6z"/>
<path d="M945 521 c-3 -5 0 -13 6 -17 7 -4 9 -3 5 4 -3 5 0 13 6 15 9 4 10 6
1 6 -6 1 -14 -3 -18 -8z"/>
<path d="M2390 489 c0 -5 5 -7 10 -4 6 3 10 8 10 11 0 2 -4 4 -10 4 -5 0 -10
-5 -10 -11z"/>
<path d="M1080 439 c0 -5 5 -7 10 -4 6 3 10 8 10 11 0 2 -4 4 -10 4 -5 0 -10
-5 -10 -11z"/>
<path d="M1206 347 c3 -10 9 -15 12 -12 3 3 0 11 -7 18 -10 9 -11 8 -5 -6z"/>
<path d="M1817 156 c-10 -8 -14 -16 -10 -19 5 -3 14 3 21 14 14 22 13 23 -11
5z"/>
<path d="M1580 100 c0 -5 5 -10 11 -10 5 0 7 5 4 10 -3 6 -8 10 -11 10 -2 0
-4 -4 -4 -10z"/>
<path d="M1720 80 c0 -5 5 -10 10 -10 6 0 10 5 10 10 0 6 -4 10 -10 10 -5 0
-10 -4 -10 -10z"/>
<path d="M4127 1812 c-146 -52 -215 -191 -204 -416 6 -145 30 -211 101 -282
59 -60 123 -84 220 -83 142 1 256 98 286 244 15 70 15 251 0 305 -53 195 -225
294 -403 232z m77 -18 c5 -14 17 -16 64 -12 72 7 105 -1 92 -22 -7 -11 -10
-11 -10 -2 0 7 -5 10 -11 7 -15 -10 -6 -16 36 -21 43 -5 55 -11 55 -26 0 -6
-7 -5 -17 3 -15 13 -15 12 -4 -9 6 -12 9 -27 5 -33 -4 -6 0 -15 7 -20 12 -7
11 -9 -1 -10 -8 -1 -22 -2 -30 -3 -19 -1 -53 40 -47 58 3 7 -5 18 -16 25 -18
11 -20 11 -9 0 21 -22 13 -32 -13 -15 -13 9 -38 16 -55 16 -22 0 -29 4 -24 13
6 9 4 9 -7 1 -8 -6 -34 -16 -59 -24 -51 -15 -72 -34 -63 -58 4 -10 2 -13 -5
-8 -7 4 -15 1 -18 -8 -3 -9 -11 -13 -18 -10 -6 3 -3 -1 7 -9 18 -15 18 -15 -1
-21 -11 -4 -27 -4 -36 0 -11 4 -16 1 -16 -11 0 -11 6 -15 18 -11 15 5 18 -1
20 -42 2 -55 -6 -102 -18 -102 -5 0 -15 7 -23 15 -8 8 -17 11 -21 8 -3 -4 -6
1 -6 10 0 8 15 27 33 41 17 14 26 26 20 26 -7 0 -15 0 -18 0 -3 0 -4 -1 -2 -3
4 -4 -44 -52 -49 -49 -3 2 -12 -5 -20 -15 -13 -16 -14 -14 -9 22 10 69 27 125
36 119 5 -3 9 6 9 19 0 20 6 26 35 31 20 4 33 11 30 16 -3 5 -12 7 -20 3 -29
-11 -14 22 20 46 19 13 33 27 30 31 -3 5 7 13 23 18 15 5 34 13 43 17 11 4 18
0 22 -14 5 -22 31 -28 42 -11 3 6 2 10 -3 10 -6 0 -12 7 -16 15 -3 8 -1 15 3
15 5 0 12 -7 15 -16z m56 6 c0 -5 -2 -10 -4 -10 -3 0 -8 5 -11 10 -3 6 -1 10
4 10 6 0 11 -4 11 -10z m23 -94 c78 -32 120 -130 121 -281 0 -113 -23 -196
-68 -241 -84 -84 -220 -37 -258 88 -7 24 -13 91 -13 153 1 166 37 250 120 280
51 18 58 18 98 1z m163 5 c-3 -5 1 -11 9 -15 8 -3 15 -15 15 -26 0 -12 4 -19
9 -15 5 3 15 -11 21 -30 9 -29 9 -41 -4 -66 -22 -43 -20 -49 6 -19 l21 25 -7
-29 c-5 -19 -3 -32 5 -36 8 -6 9 -25 4 -65 -5 -40 -10 -54 -16 -44 -5 8 -9 10
-9 5 0 -5 -7 -3 -15 4 -10 9 -15 9 -15 1 0 -6 5 -11 11 -11 5 0 7 -5 3 -12 -4
-7 -3 -8 4 -4 7 4 12 3 12 -3 0 -6 8 -7 17 -4 13 5 15 3 8 -13 -4 -10 -7 -27
-7 -36 0 -11 -5 -15 -14 -11 -16 6 -19 23 -4 23 6 0 10 5 10 12 0 6 -8 4 -20
-7 -16 -15 -17 -19 -5 -31 7 -8 19 -14 25 -14 11 0 9 -14 -11 -67 -5 -12 -17
-28 -29 -35 -21 -14 -28 -33 -7 -23 6 4 2 -2 -10 -13 -13 -11 -23 -25 -23 -30
0 -18 -74 -54 -139 -68 -60 -13 -65 -12 -81 6 -18 20 -46 28 -35 10 11 -17 -7
-11 -21 8 -19 25 -17 30 11 28 14 0 25 -5 25 -10 0 -6 5 -5 11 1 8 8 20 8 35
3 19 -8 22 -6 17 7 -4 11 -2 14 5 9 9 -6 86 35 102 55 3 3 17 5 31 5 28 -2 55
19 39 29 -14 9 -12 45 2 45 9 0 9 3 0 12 -17 17 -34 -8 -27 -39 3 -12 0 -25
-6 -28 -20 -13 -22 4 -6 47 9 24 19 75 23 113 3 39 7 72 9 75 4 7 -29 169 -39
192 -6 13 -3 15 12 11 22 -5 62 12 62 28 0 6 -5 7 -10 4 -6 -3 -13 1 -16 9 -6
17 1 46 11 46 4 0 4 -4 1 -9z m-316 -15 c0 -2 -8 -10 -17 -17 -16 -13 -17 -12
-4 4 13 16 21 21 21 13z m-143 -245 c11 -10 28 -21 39 -23 10 -2 20 -11 22
-21 3 -12 -1 -15 -15 -11 -17 5 -17 5 0 -9 18 -15 23 -28 10 -26 -5 1 -10 0
-13 -1 -26 -10 -40 -6 -40 11 0 10 -5 19 -11 19 -5 0 -8 -4 -4 -9 3 -5 -2 -16
-10 -24 -8 -9 -15 -18 -15 -21 0 -7 58 2 72 10 13 9 9 -6 -7 -22 -8 -9 -19
-12 -25 -9 -5 3 -10 1 -10 -4 0 -26 52 -2 63 29 3 9 6 6 6 -8 1 -25 -20 -52
-39 -52 -7 0 -5 -7 5 -16 8 -9 24 -14 35 -11 14 4 21 -3 29 -24 6 -18 6 -27 1
-24 -16 10 -11 -8 11 -40 19 -27 20 -28 16 -6 l-6 23 25 -23 c22 -21 23 -24 9
-45 -12 -19 -12 -23 0 -28 8 -3 15 -11 15 -18 0 -11 -2 -11 -8 0 -5 7 -15 10
-23 7 -22 -8 -92 43 -121 88 -48 76 -84 260 -58 292 16 19 22 19 47 -4z m59
-188 c-10 -10 -19 5 -10 18 6 11 8 11 12 0 2 -7 1 -15 -2 -18z"/>
<path d="M4065 1710 c-3 -5 -1 -10 4 -10 6 0 11 5 11 10 0 6 -2 10 -4 10 -3 0
-8 -4 -11 -10z"/>
<path d="M3989 1595 c-3 -5 -6 -23 -7 -40 -2 -21 1 -26 9 -18 6 6 9 23 7 39
-2 16 -6 25 -9 19z"/>
<path d="M4025 1500 c-3 -5 -1 -10 4 -10 6 0 11 5 11 10 0 6 -2 10 -4 10 -3 0
-8 -4 -11 -10z"/>
<path d="M4449 1628 c-1 -2 -3 -13 -4 -24 -2 -16 2 -20 16 -17 13 4 19 0 19
-11 0 -9 -4 -17 -10 -17 -5 -1 -14 -2 -19 -3 -6 0 -16 -7 -23 -15 -11 -11 -9
-12 10 -6 21 6 23 4 18 -17 -4 -12 2 -5 14 16 26 52 26 76 0 69 -16 -4 -19 -2
-14 11 5 12 -2 25 -7 14z"/>
<path d="M4460 1482 c0 -5 7 -9 15 -9 8 0 12 4 9 9 -3 4 -9 8 -15 8 -5 0 -9
-4 -9 -8z"/>
<path d="M4500 1469 c0 -5 5 -7 10 -4 6 3 10 8 10 11 0 2 -4 4 -10 4 -5 0 -10
-5 -10 -11z"/>
<path d="M4485 1420 c3 -5 10 -10 16 -10 5 0 9 5 9 10 0 6 -7 10 -16 10 -8 0
-12 -4 -9 -10z"/>
<path d="M4434 1346 c0 -19 4 -32 8 -30 4 3 8 18 8 35 0 16 -4 29 -8 29 -4 0
-8 -15 -8 -34z"/>
<path d="M4460 1349 c0 -5 5 -7 10 -4 6 3 10 8 10 11 0 2 -4 4 -10 4 -5 0 -10
-5 -10 -11z"/>
<path d="M4442 1284 c10 -10 20 -15 24 -12 3 4 -5 12 -18 18 -22 12 -22 12 -6
-6z"/>
<path d="M4458 1213 c7 -3 16 -2 19 1 4 3 -2 6 -13 5 -11 0 -14 -3 -6 -6z"/>
<path d="M4303 1112 c-13 -2 -23 -7 -23 -12 0 -10 59 -24 67 -16 11 10 -22 31
-44 28z"/>
<path d="M3940 1411 c0 -25 6 -27 13 -6 4 8 2 17 -3 20 -6 4 -10 -3 -10 -14z"/>
<path d="M3995 1400 c3 -5 8 -10 11 -10 2 0 4 5 4 10 0 6 -5 10 -11 10 -5 0
-7 -4 -4 -10z"/>
<path d="M3970 1254 c0 -9 84 -43 92 -38 14 9 9 24 -6 18 -7 -3 -30 2 -50 10
-20 8 -36 13 -36 10z"/>
<path d="M4031 1180 c0 -16 9 -32 24 -43 14 -10 25 -14 25 -9 0 6 -7 13 -16
16 -13 5 -14 9 -4 21 11 13 10 14 -3 9 -10 -3 -17 1 -20 13 -3 13 -5 11 -6 -7z"/>
<path d="M6132 1811 c-146 -50 -228 -236 -203 -457 26 -218 144 -333 331 -322
134 7 229 83 270 214 39 126 21 344 -35 441 -72 122 -221 173 -363 124z m93
-11 c-4 -6 1 -7 11 -3 13 5 16 3 11 -10 -3 -9 -2 -17 3 -17 6 0 10 4 10 9 0 5
17 11 38 13 41 6 117 -25 106 -43 -7 -12 15 -41 26 -34 11 7 41 -24 35 -36 -4
-5 -1 -9 4 -9 6 0 11 -7 11 -16 0 -8 4 -13 9 -10 5 4 7 -3 4 -14 -3 -11 0 -20
6 -20 17 0 13 -28 -6 -39 -16 -9 -16 -10 5 -11 24 0 29 -19 10 -39 -11 -10 -9
-11 7 -5 18 7 19 6 5 -11 -9 -11 -10 -16 -2 -11 8 5 12 1 13 -11 1 -10 3 -33
5 -51 3 -24 0 -32 -9 -29 -6 2 -11 13 -9 23 2 14 0 15 -6 6 -5 -7 -20 -11 -33
-9 -13 2 -18 2 -11 0 10 -4 10 -8 1 -19 -9 -11 -8 -14 5 -14 9 0 16 5 16 10 0
6 5 10 10 10 6 0 10 -7 10 -15 0 -9 6 -12 15 -9 12 5 14 0 9 -27 -16 -97 -26
-133 -45 -171 -22 -43 -49 -76 -49 -61 0 4 -5 0 -11 -10 -14 -24 -69 -52 -69
-35 -1 8 -6 6 -15 -6 -9 -12 -22 -17 -34 -13 -11 3 -28 -1 -38 -9 -22 -17 -37
-18 -27 -2 5 8 -2 9 -27 5 -30 -6 -32 -5 -16 7 16 13 16 14 -7 18 -17 4 -23 1
-19 -9 7 -18 -30 -17 -70 3 -49 24 -114 100 -139 163 -40 100 -29 358 17 405
8 8 15 21 15 28 0 8 14 27 30 43 27 26 35 26 31 3 -2 -17 18 -7 24 11 4 12 12
18 21 14 8 -3 14 1 14 11 0 9 -6 16 -12 16 -8 1 -5 7 6 15 22 17 34 12 46 -19
7 -17 9 -17 9 -3 1 9 8 17 16 17 8 0 15 7 15 15 0 8 7 15 16 15 8 0 12 -4 9
-10z"/>
<path d="M6172 1744 c-7 -8 -18 -11 -24 -8 -7 4 -8 2 -4 -4 4 -7 -3 -10 -20
-9 -16 1 -29 -4 -32 -13 -5 -13 -3 -13 11 -1 11 8 17 9 17 2 0 -6 -11 -13 -25
-17 -14 -3 -25 -10 -25 -15 0 -16 30 -9 50 11 31 31 37 24 7 -7 -36 -39 -65
-109 -73 -179 -4 -32 -12 -63 -18 -67 -8 -6 -7 -10 2 -14 6 -2 12 -19 11 -36
-1 -26 -2 -28 -7 -11 -6 17 -9 19 -19 9 -8 -9 -7 -15 8 -26 10 -7 18 -23 18
-34 -1 -17 -2 -17 -6 -2 -6 22 -9 22 -36 -4 l-22 -21 23 11 c18 10 22 9 22 -3
0 -8 -6 -17 -12 -19 -8 -3 -6 -6 5 -6 9 -1 17 3 17 9 0 5 7 7 15 4 8 -4 15
-14 15 -23 0 -10 3 -21 8 -25 4 -4 14 -28 22 -54 11 -35 20 -47 35 -48 39 -2
45 -4 65 -24 11 -11 20 -15 20 -10 0 6 18 10 39 10 22 0 43 5 46 10 3 6 14 10
24 10 10 0 23 12 29 26 10 20 17 24 35 19 16 -5 18 -4 7 4 -12 8 -12 17 4 67
10 32 19 83 19 115 1 50 3 55 14 41 12 -15 12 -15 6 3 -3 11 -9 25 -13 30 -4
6 -8 29 -9 51 -1 23 -6 57 -11 75 -15 51 -12 70 10 76 11 3 20 9 20 14 0 5
-12 4 -26 -2 -28 -10 -39 -6 -39 14 0 6 -10 16 -23 23 -28 14 -43 29 -19 21 9
-4 17 -2 17 4 0 5 -10 9 -22 8 -67 -6 -137 2 -140 15 -3 12 -5 12 -16 0z m122
-38 c74 -31 116 -135 116 -287 0 -110 -27 -203 -70 -244 -27 -26 -39 -30 -90
-30 -92 0 -146 52 -170 165 -16 74 -9 240 12 290 41 97 122 140 202 106z"/>
<path d="M6388 1703 c7 -3 16 -2 19 1 4 3 -2 6 -13 5 -11 0 -14 -3 -6 -6z"/>
<path d="M6409 1683 c-13 -17 -13 -17 6 -3 11 8 22 16 24 17 2 2 0 3 -6 3 -6
0 -17 -8 -24 -17z"/>
<path d="M6036 1675 c-4 -11 -2 -22 6 -26 17 -11 20 -6 10 21 -8 21 -9 22 -16
5z"/>
<path d="M6053 1633 c-13 -2 -23 -9 -23 -14 0 -6 5 -7 10 -4 7 4 8 -3 4 -22
-4 -17 -3 -24 3 -18 8 9 36 67 30 64 -1 -1 -12 -4 -24 -6z"/>
<path d="M6010 1623 c0 -7 -6 -13 -14 -13 -21 0 -29 -17 -16 -37 10 -17 10
-16 8 2 -2 13 4 20 17 23 15 2 17 1 6 -6 -9 -7 -10 -12 -2 -16 16 -10 25 19
12 41 -6 10 -11 12 -11 6z"/>
<path d="M6410 1620 c0 -5 5 -10 10 -10 6 0 10 5 10 10 0 6 -4 10 -10 10 -5 0
-10 -4 -10 -10z"/>
<path d="M6000 1546 c0 -8 -2 -20 -3 -28 -2 -7 -2 -10 0 -5 3 4 8 5 13 2 4 -3
7 6 6 20 -1 26 -16 36 -16 11z"/>
<path d="M6035 1540 c3 -5 8 -10 11 -10 2 0 4 5 4 10 0 6 -5 10 -11 10 -5 0
-7 -4 -4 -10z"/>
<path d="M5960 1513 c-11 -13 -11 -18 -2 -21 7 -2 18 -10 25 -17 11 -10 17
-10 30 0 26 19 20 27 -14 20 -28 -6 -30 -5 -24 14 8 25 5 26 -15 4z"/>
<path d="M6470 1520 c0 -5 5 -10 11 -10 5 0 7 5 4 10 -3 6 -8 10 -11 10 -2 0
-4 -4 -4 -10z"/>
<path d="M6448 1493 c7 -3 16 -2 19 1 4 3 -2 6 -13 5 -11 0 -14 -3 -6 -6z"/>
<path d="M6457 1469 c7 -7 15 -10 18 -7 3 3 -2 9 -12 12 -14 6 -15 5 -6 -5z"/>
<path d="M5957 1440 c-4 -15 0 -20 14 -20 22 0 25 13 5 29 -11 9 -15 7 -19 -9z"/>
<path d="M5987 1414 c-13 -18 -14 -22 -3 -18 8 3 17 13 20 21 10 25 3 23 -17
-3z"/>
<path d="M6437 1325 c-4 -8 -3 -16 1 -19 4 -3 9 4 9 15 2 23 -3 25 -10 4z"/>
<path d="M6480 1318 c0 -4 4 -8 9 -8 6 0 12 4 15 8 3 5 -1 9 -9 9 -8 0 -15 -4
-15 -9z"/>
<path d="M6430 1286 c0 -2 7 -6 15 -10 8 -3 15 -1 15 4 0 6 -7 10 -15 10 -8 0
-15 -2 -15 -4z"/>
<path d="M6413 1247 c-3 -5 0 -14 7 -20 10 -9 11 -9 6 1 -4 7 -1 12 8 12 9 0
16 4 16 8 0 12 -29 11 -37 -1z"/>
<path d="M6004 1239 c-3 -5 -1 -9 5 -9 5 0 16 -3 25 -6 9 -3 16 -2 16 4 0 13
-38 23 -46 11z"/>
<path d="M6430 1210 c-13 -8 -13 -10 2 -10 9 0 20 5 23 10 8 13 -5 13 -25 0z"/>
<path d="M6397 1163 c-13 -12 -7 -25 6 -14 8 6 17 8 20 4 4 -3 7 -1 7 5 0 13
-22 16 -33 5z"/>
<path d="M6080 1129 c0 -5 5 -7 10 -4 6 3 10 8 10 11 0 2 -4 4 -10 4 -5 0 -10
-5 -10 -11z"/>
<path d="M6300 1111 c0 -5 7 -15 17 -22 15 -13 15 -12 4 9 -12 23 -21 28 -21
13z"/>
<path d="M6355 1110 c3 -5 8 -10 11 -10 2 0 4 5 4 10 0 6 -5 10 -11 10 -5 0
-7 -4 -4 -10z"/>
<path d="M3290 1431 l0 -391 143 0 c182 0 250 11 296 48 52 42 76 96 75 168
-1 72 -26 121 -80 154 -18 12 -34 25 -34 29 0 4 14 20 31 37 95 88 75 244 -39
311 -46 27 -52 28 -219 31 l-173 4 0 -391z m44 356 c7 -7 11 -18 10 -25 -1 -7
0 -8 3 -2 2 5 25 10 49 10 30 0 43 4 38 11 -4 8 0 8 15 0 11 -7 21 -8 21 -4 0
5 11 10 24 11 20 1 23 -2 20 -21 -4 -19 -3 -19 4 -3 6 15 22 20 66 23 56 4 57
4 46 -17 -10 -18 -8 -24 7 -35 10 -7 20 -11 23 -9 2 3 -2 9 -9 14 -12 7 -12
11 2 24 19 20 31 21 24 2 -6 -15 18 -30 33 -21 12 7 22 -27 11 -38 -11 -11 -4
-37 10 -37 4 0 6 6 3 14 -3 8 -1 17 4 20 15 9 34 -83 27 -127 -7 -39 -51 -99
-88 -118 -13 -8 -17 -8 -13 0 11 17 -5 61 -21 61 -10 0 -13 6 -8 18 16 42 16
75 -1 121 -9 27 -22 49 -28 48 -6 -1 -10 3 -9 8 1 6 -27 12 -65 13 -37 2 -75
5 -86 8 -13 4 -17 2 -14 -7 3 -10 26 -15 74 -16 63 -2 71 -5 97 -33 22 -25 27
-40 27 -81 0 -45 -4 -55 -34 -85 -32 -32 -38 -34 -100 -34 l-66 0 0 120 c0 89
-3 120 -12 120 -10 0 -12 -17 -10 -61 3 -46 1 -59 -8 -54 -9 5 -10 1 -5 -15 7
-21 5 -22 -24 -18 -17 2 -31 1 -31 -4 0 -4 9 -8 20 -8 11 0 20 -5 20 -11 0 -6
-7 -9 -15 -5 -8 3 -15 1 -15 -4 0 -19 18 -19 38 1 17 15 22 16 22 5 0 -8 -5
-18 -11 -22 -8 -4 -8 -9 0 -17 6 -6 11 -29 12 -52 0 -34 2 -37 9 -17 7 17 17
22 42 21 30 -1 31 -2 8 -8 -14 -4 -26 -16 -28 -26 -3 -19 -2 -19 8 -2 6 9 16
14 22 11 6 -4 17 1 24 10 9 13 30 19 73 21 33 2 66 7 72 11 15 9 2 -36 -17
-55 -11 -12 -16 -12 -28 -1 -11 8 -16 9 -16 1 0 -6 5 -11 10 -11 6 0 10 -4 10
-9 0 -7 -26 -7 -145 3 l-40 3 -3 -55 c-2 -31 -8 -64 -13 -73 -6 -11 -5 -20 1
-24 13 -8 13 -65 -1 -65 -6 0 -17 -7 -25 -15 -18 -18 -11 -19 18 -4 17 9 19 8
14 -9 -4 -11 -2 -23 4 -27 6 -3 8 -10 5 -15 -3 -4 5 -6 17 -3 19 4 20 3 8 -6
-13 -9 -11 -11 7 -11 12 0 23 5 25 12 3 8 11 4 24 -10 l19 -22 17 22 c9 13 20
19 24 15 4 -4 -1 -13 -11 -21 -10 -7 -15 -18 -11 -24 5 -8 -3 -12 -26 -11 -18
0 -27 3 -20 6 24 9 12 21 -20 18 -18 -2 -46 -3 -61 -4 -17 -1 -26 -5 -22 -12
5 -7 -8 -9 -37 -7 l-43 3 -2 368 c-1 244 1 367 8 367 6 0 16 -6 23 -13z m326
-366 c0 -5 15 -14 33 -20 46 -16 85 -55 93 -96 17 -90 -25 -188 -96 -225 -17
-9 -25 -10 -28 -1 -2 6 -8 11 -13 11 -4 0 -6 -7 -3 -15 5 -12 -4 -15 -45 -15
-47 0 -51 2 -42 18 18 33 39 46 55 33 9 -7 17 -8 20 -2 3 5 0 12 -6 14 -7 3
-3 6 10 6 24 1 28 11 11 28 -8 8 -7 13 2 18 8 6 10 4 4 -6 -7 -12 -6 -12 6 -1
9 9 14 36 14 80 0 58 -3 70 -24 91 -23 23 -24 25 -5 32 10 3 23 4 28 1 5 -3 6
0 2 6 -4 7 -19 9 -36 5 -19 -3 -30 -1 -30 6 0 6 7 11 15 11 8 0 15 7 15 15 0
8 5 15 10 15 6 0 10 -4 10 -9z m-33 -73 c49 -50 38 -158 -19 -189 -12 -7 -56
-12 -97 -13 l-76 -1 -3 117 -3 117 38 3 c72 6 133 -7 160 -34z m-190 -284 c-3
-3 -12 -4 -19 -1 -8 3 -5 6 6 6 11 1 17 -2 13 -5z"/>
<path d="M3560 1766 c0 -2 7 -9 15 -16 13 -11 14 -10 9 4 -5 14 -24 23 -24 12z"/>
<path d="M3398 1753 c7 -3 16 -2 19 1 4 3 -2 6 -13 5 -11 0 -14 -3 -6 -6z"/>
<path d="M3680 1696 c0 -8 5 -18 10 -21 6 -3 10 1 10 9 0 8 -4 18 -10 21 -5 3
-10 -1 -10 -9z"/>
<path d="M3670 1639 c-12 -8 -10 -9 8 -4 20 6 22 4 16 -19 -3 -15 -2 -26 4
-26 16 0 21 48 5 54 -18 7 -15 8 -33 -5z"/>
<path d="M3378 1623 c7 -3 16 -2 19 1 4 3 -2 6 -13 5 -11 0 -14 -3 -6 -6z"/>
<path d="M3720 1585 c-8 -9 -22 -13 -39 -10 -23 5 -24 4 -4 -4 26 -12 63 -3
63 15 0 18 -5 18 -20 -1z"/>
<path d="M3600 1430 c0 -5 5 -10 10 -10 6 0 10 5 10 10 0 6 -4 10 -10 10 -5 0
-10 -4 -10 -10z"/>
<path d="M3508 1413 c7 -3 16 -2 19 1 4 3 -2 6 -13 5 -11 0 -14 -3 -6 -6z"/>
<path d="M3345 1400 c3 -5 8 -10 11 -10 2 0 4 5 4 10 0 6 -5 10 -11 10 -5 0
-7 -4 -4 -10z"/>
<path d="M3378 1343 c7 -3 16 -2 19 1 4 3 -2 6 -13 5 -11 0 -14 -3 -6 -6z"/>
<path d="M3358 1313 c7 -3 16 -2 19 1 4 3 -2 6 -13 5 -11 0 -14 -3 -6 -6z"/>
<path d="M3360 1259 c0 -5 5 -7 10 -4 6 3 10 8 10 11 0 2 -4 4 -10 4 -5 0 -10
-5 -10 -11z"/>
<path d="M3333 1193 c9 -9 20 -13 24 -9 4 4 1 11 -7 16 -25 16 -35 11 -17 -7z"/>
<path d="M3359 1117 c15 -19 41 -23 41 -7 0 6 -4 10 -9 10 -5 0 -18 3 -28 7
-16 6 -16 5 -4 -10z"/>
<path d="M3336 1078 c7 -11 34 -10 34 1 0 6 -9 9 -19 8 -11 0 -17 -5 -15 -9z"/>
<path d="M3675 1350 c3 -5 8 -10 11 -10 2 0 4 5 4 10 0 6 -5 10 -11 10 -5 0
-7 -4 -4 -10z"/>
<path d="M3726 1344 c-11 -8 -16 -14 -10 -14 13 0 39 18 34 24 -3 2 -14 -2
-24 -10z"/>
<path d="M3760 1280 c0 -5 5 -10 11 -10 5 0 7 5 4 10 -3 6 -8 10 -11 10 -2 0
-4 -4 -4 -10z"/>
<path d="M3720 1270 c0 -5 5 -10 10 -10 6 0 10 5 10 10 0 6 -4 10 -10 10 -5 0
-10 -4 -10 -10z"/>
<path d="M3730 1178 c0 -19 2 -20 10 -8 13 19 13 30 0 30 -5 0 -10 -10 -10
-22z"/>
<path d="M3600 1102 c0 -8 -5 -10 -12 -6 -10 5 -10 4 -1 -6 16 -17 35 -9 23
10 -7 11 -10 11 -10 2z"/>
<path d="M4768 1548 c-3 -264 -4 -275 -27 -322 -19 -38 -33 -52 -67 -68 -43
-19 -44 -20 -44 -68 l0 -50 50 0 c88 0 150 44 192 135 21 46 23 68 28 290 l5
240 103 0 103 0 2 -330 2 -330 68 -3 67 -3 0 391 0 390 -239 0 -239 0 -4 -272z
m75 245 c-7 -2 -21 -2 -30 0 -10 3 -4 5 12 5 17 0 24 -2 18 -5z m51 -24 c5 7
16 9 28 5 12 -4 18 -2 15 4 -4 5 3 8 16 7 12 -1 30 -3 40 -4 14 -1 17 -6 12
-23 -5 -20 -4 -20 11 3 16 24 23 27 73 26 31 0 59 -6 63 -11 5 -8 8 -7 8 1 0
8 9 9 28 4 15 -4 32 -6 39 -4 15 5 14 -288 -2 -299 -7 -5 -6 -8 1 -8 8 0 12
-51 13 -165 l2 -165 -31 6 c-32 7 -40 -5 -15 -26 12 -10 18 -10 30 0 13 11 15
8 15 -14 0 -16 -5 -26 -15 -26 -8 0 -15 -3 -15 -7 0 -5 -17 -9 -39 -11 l-38
-2 -2 241 c-2 189 1 244 11 250 10 7 10 9 1 9 -9 0 -13 22 -13 74 0 85 -12
106 -57 99 -21 -3 -24 -2 -13 6 8 5 11 14 6 18 -4 4 -14 0 -21 -10 -11 -16
-24 -18 -84 -15 l-71 3 0 -33 c0 -20 -4 -31 -10 -27 -5 3 -10 -1 -10 -10 0 -9
5 -13 10 -10 10 6 5 -107 -5 -142 -2 -7 0 -15 5 -18 5 -3 5 -18 0 -36 -6 -20
-6 -39 0 -50 16 -28 12 -67 -7 -78 -10 -6 -12 -11 -5 -11 15 0 15 -33 1 -100
-7 -31 -15 -48 -21 -44 -7 4 -8 2 -4 -5 10 -16 -37 -77 -74 -96 -36 -19 -37
-19 -44 1 -3 8 -2 12 3 9 5 -3 12 -1 16 5 3 5 -3 10 -13 10 -11 0 -22 -8 -25
-19 -4 -18 -57 -36 -57 -20 0 5 6 9 13 10 10 0 10 2 0 6 -21 8 -15 40 11 57
14 9 32 13 40 10 10 -4 16 -1 16 7 0 7 2 10 5 7 3 -3 3 -13 -1 -22 -4 -11 -10
-13 -18 -7 -8 7 -16 4 -24 -10 -15 -23 -10 -24 34 -3 19 9 31 20 28 25 -3 5 0
9 5 9 6 0 11 -4 11 -10 0 -5 7 -10 15 -10 8 0 15 4 15 9 0 9 -30 25 -42 23 -5
-1 -8 2 -8 8 0 5 9 10 20 10 17 0 19 2 8 14 -7 8 -16 12 -20 9 -10 -5 -10 0
-2 21 5 13 9 14 20 5 11 -9 14 -7 14 10 0 14 -4 20 -11 15 -8 -4 -9 1 -4 17 4
12 9 37 10 53 2 17 4 33 5 36 1 3 2 24 2 47 0 24 4 46 9 49 6 3 5 11 -2 20
-13 16 -19 253 -5 261 4 3 2 9 -5 14 -11 6 -11 11 -2 20 10 10 20 9 48 -4 19
-9 34 -13 34 -9 -1 4 -1 14 1 22 1 11 4 10 9 -4 5 -14 10 -16 15 -7z"/>
<path d="M5105 1761 c-3 -5 -1 -12 5 -16 5 -3 10 1 10 9 0 18 -6 21 -15 7z"/>
<path d="M5160 1752 c0 -5 7 -9 15 -9 8 0 12 4 9 9 -3 4 -9 8 -15 8 -5 0 -9
-4 -9 -8z"/>
<path d="M4836 1713 c5 -5 12 -12 16 -18 4 -6 8 -2 8 8 0 9 -7 17 -17 17 -9 0
-12 -3 -7 -7z"/>
<path d="M5150 1716 c0 -9 30 -14 35 -6 4 6 -3 10 -14 10 -12 0 -21 -2 -21 -4z"/>
<path d="M5185 1690 c-4 -6 -4 -10 -1 -10 2 0 11 -3 20 -6 9 -3 16 -2 16 4 0
14 -28 23 -35 12z"/>
<path d="M4841 1622 c-7 -13 -6 -23 1 -30 17 -17 33 -15 19 2 -6 7 -9 21 -5
30 8 22 -3 20 -15 -2z"/>
<path d="M5190 1594 c0 -16 -2 -17 -10 -4 -5 8 -10 11 -10 5 0 -5 4 -16 9 -24
7 -11 10 -9 16 8 4 13 4 25 1 28 -3 4 -6 -2 -6 -13z"/>
<path d="M5207 1517 c-11 -29 -9 -43 4 -30 6 6 9 19 7 29 -3 18 -4 18 -11 1z"/>
<path d="M4839 1463 c-13 -15 -12 -15 9 -4 23 12 28 21 13 21 -5 0 -15 -7 -22
-17z"/>
<path d="M4838 1422 c-7 -11 -20 -21 -28 -25 -11 -4 -11 -6 4 -6 12 -1 16 -6
12 -16 -3 -8 -1 -15 4 -15 6 0 10 13 10 28 0 15 5 33 12 40 7 7 9 12 6 12 -4
0 -13 -8 -20 -18z"/>
<path d="M5174 1427 c-4 -7 -4 -9 1 -5 4 4 16 3 26 -3 14 -7 19 -6 19 4 0 16
-37 20 -46 4z"/>
<path d="M5175 1399 c-4 -6 -5 -12 -2 -15 2 -3 7 2 10 11 7 17 1 20 -8 4z"/>
<path d="M4859 1383 c-13 -16 -12 -17 4 -4 16 13 21 21 13 21 -2 0 -10 -8 -17
-17z"/>
<path d="M4790 1290 c0 -11 4 -20 9 -20 5 0 7 9 4 20 -3 11 -7 20 -9 20 -2 0
-4 -9 -4 -20z"/>
<path d="M5205 1270 c-3 -5 -1 -10 4 -10 6 0 11 5 11 10 0 6 -2 10 -4 10 -3 0
-8 -4 -11 -10z"/>
<path d="M4815 1260 c-3 -5 -2 -10 4 -10 5 0 13 5 16 10 3 6 2 10 -4 10 -5 0
-13 -4 -16 -10z"/>
<path d="M4819 1219 c16 -6 28 -6 35 1 7 7 -1 10 -24 9 -33 0 -34 -1 -11 -10z"/>
<path d="M5185 1179 c-4 -6 -5 -12 -2 -15 2 -3 7 2 10 11 7 17 1 20 -8 4z"/>
<path d="M5141 1134 c0 -11 3 -14 6 -6 3 7 2 16 -1 19 -3 4 -6 -2 -5 -13z"/>
<path d="M4767 1101 c-4 -17 -3 -21 5 -13 5 5 8 16 6 23 -3 8 -7 3 -11 -10z"/>
<path d="M5430 1430 l0 -390 65 0 65 0 0 335 0 335 150 0 149 0 0 55 -1 55
-214 0 -214 0 0 -390z m25 360 c-3 -5 -1 -10 4 -10 6 0 11 5 11 10 0 6 7 10
15 10 8 0 15 -4 15 -10 0 -5 -4 -10 -10 -10 -5 0 -10 -4 -10 -10 0 -5 7 -7 15
-4 12 5 13 2 8 -12 -6 -18 -6 -18 10 -2 9 9 17 24 17 33 0 14 2 14 13 3 10 -9
44 -13 123 -11 60 0 111 -3 114 -8 9 -13 48 1 53 20 3 9 5 -1 6 -21 l1 -38
-145 -1 c-80 -1 -151 -2 -157 -3 -18 -1 -22 -34 -8 -51 12 -15 5 -20 -25 -16
-6 0 -11 -8 -11 -18 0 -15 3 -16 18 -8 9 6 19 9 22 6 5 -5 7 -128 7 -396 l-1
-183 -47 0 -48 0 -2 220 c-2 169 0 220 10 220 7 0 8 3 2 8 -13 9 -15 292 -3
292 5 0 6 -4 3 -10z m89 -95 c-4 -8 -8 -15 -10 -15 -2 0 -4 7 -4 15 0 8 4 15
10 15 5 0 7 -7 4 -15z"/>
<path d="M5490 1691 c0 -6 4 -13 10 -16 6 -3 7 1 4 9 -7 18 -14 21 -14 7z"/>
<path d="M5521 1604 c0 -11 3 -14 6 -6 3 7 2 16 -1 19 -3 4 -6 -2 -5 -13z"/>
<path d="M5475 1580 c-3 -5 1 -10 9 -10 9 0 16 -8 16 -17 0 -15 2 -16 10 -3 5
9 5 19 -2 27 -13 16 -25 17 -33 3z"/>
<path d="M5472 1530 c15 -23 17 -23 38 -10 12 8 11 10 -7 10 -13 0 -23 5 -23
10 0 6 -5 10 -10 10 -6 0 -5 -8 2 -20z"/>
<path d="M5490 1490 c-24 -15 -7 -18 20 -3 14 7 18 13 10 13 -8 0 -22 -4 -30
-10z"/>
<path d="M5522 1445 c0 -16 2 -22 5 -12 2 9 2 23 0 30 -3 6 -5 -1 -5 -18z"/>
<path d="M5485 1420 c3 -5 11 -10 16 -10 6 0 7 5 4 10 -3 6 -11 10 -16 10 -6
0 -7 -4 -4 -10z"/>
<path d="M5460 1389 c0 -5 5 -7 10 -4 6 3 10 8 10 11 0 2 -4 4 -10 4 -5 0 -10
-5 -10 -11z"/>
<path d="M5510 1390 c-13 -8 -12 -10 3 -10 9 0 17 5 17 10 0 12 -1 12 -20 0z"/>
<path d="M5515 1331 c-3 -5 -1 -12 5 -16 5 -3 10 1 10 9 0 18 -6 21 -15 7z"/>
<path d="M5475 1320 c-19 -8 -19 -9 3 -9 12 -1 22 4 22 9 0 6 -1 10 -2 9 -2 0
-12 -4 -23 -9z"/>
<path d="M5460 1230 c0 -6 7 -10 15 -10 8 0 15 2 15 4 0 2 -7 6 -15 10 -8 3
-15 1 -15 -4z"/>
<path d="M5490 1188 c0 -4 6 -8 14 -8 8 0 17 4 20 8 2 4 -4 8 -15 8 -10 0 -19
-4 -19 -8z"/>
<path d="M5450 1185 c0 -2 10 -10 23 -16 20 -11 21 -11 8 4 -13 16 -31 23 -31
12z"/>
<path d="M5485 1140 c-3 -5 -1 -10 4 -10 6 0 11 5 11 10 0 6 -2 10 -4 10 -3 0
-8 -4 -11 -10z"/>
<path d="M5460 1089 c0 -5 4 -8 9 -5 5 4 12 0 14 -6 3 -8 6 -6 6 5 1 9 -6 17
-14 17 -8 0 -15 -5 -15 -11z"/>
<path d="M6700 1430 l0 -390 65 0 66 0 -1 274 c-1 151 -4 276 -7 279 -3 4 -12
-1 -21 -9 -9 -9 -11 -19 -6 -22 12 -9 13 -112 1 -112 -5 0 -6 -16 -2 -36 4
-24 3 -34 -4 -29 -6 3 -11 1 -11 -4 0 -6 5 -11 10 -11 6 0 10 -5 10 -11 0 -5
-6 -7 -12 -3 -9 5 -9 2 1 -9 10 -12 10 -17 2 -17 -8 0 -7 -6 3 -16 20 -20 21
-19 -9 -20 -36 -3 -55 -11 -55 -26 0 -8 3 -9 8 -3 9 14 50 17 57 4 4 -5 -7
-12 -24 -15 -38 -8 -40 -18 -5 -21 14 0 31 -7 38 -13 8 -10 5 -11 -16 -8 -15
3 -25 1 -22 -4 3 -5 -2 -16 -12 -23 -17 -13 -17 -14 -2 -15 12 0 16 -8 16 -30
-1 -17 2 -33 5 -37 4 -3 7 0 7 9 0 8 7 15 15 15 23 0 18 -27 -7 -36 -13 -5
-26 -7 -30 -4 -5 2 -8 0 -8 -6 0 -5 8 -12 18 -14 9 -3 1 -5 -19 -6 -34 -1 -35
0 -32 32 4 34 3 66 -1 187 -2 51 2 86 12 108 9 20 11 37 6 40 -5 4 -10 15 -12
26 -3 15 2 18 27 14 23 -3 31 -1 31 10 0 11 -8 13 -29 9 -23 -5 -30 -2 -34 13
-3 14 0 18 14 15 12 -2 16 1 13 10 -3 8 -11 12 -17 9 -19 -7 -21 143 -3 171 9
13 12 25 7 27 -5 2 -11 19 -15 38 -3 19 -3 29 0 23 3 -7 19 -13 34 -13 18 0
35 -8 44 -22 9 -12 16 -17 16 -10 0 20 27 44 35 32 4 -6 11 -8 16 -5 9 6 14
-21 11 -60 -2 -15 0 -17 7 -6 6 9 14 -2 26 -40 9 -30 19 -61 22 -69 4 -8 5
-21 4 -27 -1 -7 3 -13 8 -13 6 0 3 -9 -6 -20 -14 -15 -20 -17 -32 -7 -11 10
-13 9 -9 -3 7 -22 38 -24 52 -5 11 16 15 13 29 -24 21 -50 21 -51 2 -51 -8 0
-15 -4 -15 -10 0 -5 7 -10 15 -10 8 0 15 -4 15 -10 0 -5 -9 -10 -19 -10 -11 0
-22 -4 -25 -9 -3 -4 5 -6 18 -4 18 4 26 0 31 -16 4 -12 11 -18 17 -15 7 5 9 2
6 -7 -3 -8 0 -23 8 -33 7 -11 11 -24 8 -30 -3 -6 0 -4 8 5 7 8 21 18 31 22 10
4 17 15 15 24 -2 10 2 17 9 16 7 -2 10 4 6 13 -5 13 -2 15 17 9 20 -6 22 -4
17 14 -3 11 -1 21 4 21 5 0 9 7 9 15 0 13 -4 14 -21 4 -19 -10 -20 -9 -14 13
12 39 34 76 52 90 10 7 19 20 21 28 7 36 25 57 46 54 12 -3 15 -2 6 2 -16 7
-30 24 -30 36 0 4 12 3 28 -3 l27 -10 -22 21 c-13 11 -23 25 -23 30 0 15 24
64 35 72 17 13 95 9 95 -4 0 -9 3 -9 12 0 15 15 42 16 33 2 -4 -6 -11 -8 -16
-5 -5 4 -9 -1 -9 -9 0 -8 -8 -20 -17 -25 -17 -10 -17 -10 0 -11 12 0 17 -8 17
-31 0 -17 -4 -28 -10 -24 -5 3 -10 1 -10 -4 0 -6 9 -11 19 -11 18 0 19 -9 20
-126 1 -99 -1 -124 -11 -118 -10 6 -11 4 0 -7 7 -8 12 -41 11 -89 -1 -53 -3
-68 -9 -50 -9 30 -13 19 -10 -33 1 -21 -4 -45 -12 -54 -11 -14 -10 -15 10 -9
30 10 28 -8 -5 -34 -16 -13 -23 -24 -17 -28 6 -4 13 -15 17 -24 5 -15 1 -18
-28 -18 l-35 0 0 261 c0 171 -3 258 -10 254 -6 -4 -10 -105 -10 -271 l0 -264
65 0 65 0 0 390 0 391 -82 -3 -82 -3 -93 -225 c-93 -223 -113 -262 -113 -224
-1 10 -40 116 -88 234 l-88 215 -82 3 -82 3 0 -391z m320 -45 c0 -5 -5 -3 -10
5 -5 8 -10 20 -10 25 0 6 5 3 10 -5 5 -8 10 -19 10 -25z m367 -192 c-3 -10 -5
-4 -5 12 0 17 2 24 5 18 2 -7 2 -21 0 -30z m0 -95 c-3 -7 -5 -2 -5 12 0 14 2
19 5 13 2 -7 2 -19 0 -25z"/>
<path d="M7580 1430 l0 -390 215 0 215 0 0 50 0 50 -52 1 c-29 0 -93 2 -143 3
l-90 3 -3 117 -3 116 136 -2 135 -3 0 53 0 52 -135 0 -135 0 0 115 0 115 145
0 145 0 0 55 0 55 -215 0 -215 0 0 -390z m383 347 c4 3 7 -3 7 -14 0 -12 6
-24 13 -26 6 -3 -43 -6 -110 -6 -76 -1 -124 3 -128 10 -5 6 -11 4 -19 -7 -12
-15 -13 -15 -19 7 -4 13 -2 28 3 33 7 7 10 5 10 -3 0 -7 6 -11 15 -8 8 4 17 2
20 -4 4 -5 11 -6 17 -3 6 4 15 0 20 -7 7 -10 8 -8 3 7 -5 18 -2 21 19 17 14
-3 23 -10 20 -17 -3 -7 13 -12 43 -14 47 -2 55 5 13 13 -31 6 -38 15 -13 15
12 0 24 7 27 15 5 14 8 14 29 0 13 -8 27 -12 30 -8z m24 -14 c-3 -10 -5 -4 -5
12 0 17 2 24 5 18 2 -7 2 -21 0 -30z m-299 6 c-2 -6 -7 -10 -11 -10 -4 1 -16
1 -28 1 -11 0 -17 5 -14 10 8 14 58 13 53 -1z m12 -31 c0 -4 -8 -12 -17 -17
-16 -10 -16 -10 2 -11 18 0 20 -5 17 -35 -2 -19 -8 -35 -14 -35 -5 0 -6 -6 -2
-12 5 -7 10 -45 12 -85 4 -70 3 -71 -18 -66 -17 4 -21 2 -18 -8 3 -8 11 -13
17 -11 17 3 13 -15 -4 -22 -8 -3 -15 -11 -15 -18 0 -8 3 -9 8 -3 9 13 42 16
42 4 0 -5 -4 -9 -10 -9 -5 0 -10 -5 -10 -11 0 -5 5 -7 12 -3 8 5 9 2 5 -10 -4
-10 -7 -67 -7 -127 0 -62 -4 -108 -9 -105 -5 3 -9 0 -8 -7 2 -60 -2 -67 -35
-62 l-33 5 25 -15 25 -14 -31 -1 -31 0 1 62 c1 52 4 63 19 66 9 2 15 7 12 12
-3 5 -12 7 -20 4 -11 -4 -13 7 -13 55 l1 61 33 -3 c21 -3 31 0 28 8 -3 6 -18
10 -34 9 -27 -2 -30 1 -30 27 0 16 4 29 10 29 5 0 6 -7 3 -17 -4 -10 -2 -14 5
-10 6 4 13 -1 15 -10 3 -10 5 -1 6 21 1 34 -1 38 -19 33 -17 -4 -20 0 -20 33
0 32 3 37 19 33 10 -3 22 1 26 8 5 7 4 10 -3 5 -6 -3 -13 -2 -17 4 -4 6 -11 8
-16 5 -5 -4 -9 -1 -9 5 0 7 8 9 20 5 11 -3 20 -2 20 3 0 5 -9 12 -20 15 -23 6
-27 27 -5 27 8 0 15 -4 15 -10 0 -5 5 -10 10 -10 18 0 11 18 -9 25 -25 8 -31
24 -19 55 7 20 11 22 18 10 8 -13 10 -12 10 3 0 9 -6 17 -14 17 -8 0 -18 5
-22 11 -5 8 4 10 30 7 21 -2 36 0 36 7 0 5 -12 11 -26 12 -29 1 -52 19 -40 30
4 4 10 2 14 -4 5 -9 11 -6 20 8 11 18 10 19 -13 13 -25 -6 -36 10 -12 19 17 8
87 3 87 -5z m119 -279 c44 -1 81 -5 81 -10 0 -5 -7 -6 -15 -3 -8 4 -15 2 -15
-4 0 -13 20 -20 42 -14 9 2 14 10 11 18 -3 8 0 14 6 14 6 0 11 -5 11 -11 0 -6
7 -9 15 -5 11 4 15 -2 15 -24 0 -26 -4 -30 -27 -29 -25 0 -26 1 -8 9 17 7 17
9 3 9 -28 1 -33 0 -30 -10 1 -5 -41 -9 -94 -9 -92 0 -96 1 -91 21 3 12 0 22
-9 26 -11 4 -12 9 -3 19 6 8 15 12 19 9 4 -2 44 -5 89 -6z m-84 -342 c21 -13
58 -14 88 -2 11 5 17 3 17 -5 0 -9 3 -10 13 -1 11 8 19 5 35 -14 23 -27 42
-33 42 -13 0 9 3 9 12 0 16 -16 39 -15 37 1 -3 23 1 37 11 37 6 0 10 -13 10
-30 l0 -30 -141 0 c-91 0 -138 4 -134 10 3 6 -1 10 -9 10 -19 0 -28 14 -20 34
7 19 14 20 39 3z m222 -29 c-3 -7 -5 -2 -5 12 0 14 2 19 5 13 2 -7 2 -19 0
-25z"/>
<path d="M7640 1590 c0 -5 5 -10 10 -10 6 0 10 5 10 10 0 6 -4 10 -10 10 -5 0
-10 -4 -10 -10z"/>
<path d="M7665 1570 c-19 -8 -19 -9 3 -9 12 -1 22 4 22 9 0 6 -1 10 -2 9 -2 0
-12 -4 -23 -9z"/>
<path d="M7655 1522 c-8 -21 -3 -22 17 -2 14 13 15 17 3 17 -8 0 -17 -7 -20
-15z"/>
<path d="M7675 1500 c-3 -5 -1 -10 4 -10 6 0 11 5 11 10 0 6 -2 10 -4 10 -3 0
-8 -4 -11 -10z"/>
<path d="M7611 1444 c0 -11 3 -14 6 -6 3 7 2 16 -1 19 -3 4 -6 -2 -5 -13z"/>
<path d="M7634 1288 c-4 -6 -3 -8 3 -5 6 4 15 -5 21 -18 7 -14 17 -25 24 -25
9 0 8 3 -2 10 -13 9 -13 11 0 20 13 8 12 10 -2 10 -10 0 -18 5 -18 10 0 14
-17 13 -26 -2z"/>
<path d="M7638 1223 c7 -3 16 -2 19 1 4 3 -2 6 -13 5 -11 0 -14 -3 -6 -6z"/>
<path d="M7665 1201 c-3 -5 -1 -12 5 -16 5 -3 10 1 10 9 0 18 -6 21 -15 7z"/>
<path d="M7630 1170 c-13 -8 -12 -10 3 -10 9 0 17 5 17 10 0 12 -1 12 -20 0z"/>
<path d="M7655 1141 c-3 -6 -12 -8 -20 -4 -8 3 -15 0 -15 -6 0 -12 16 -13 44
-2 13 5 16 10 9 14 -7 4 -14 3 -18 -2z"/>
<path d="M7810 1438 c0 -5 -4 -6 -10 -3 -5 3 -10 1 -10 -4 0 -6 5 -11 11 -11
5 0 8 -4 5 -8 -2 -4 4 -9 15 -9 11 -1 17 2 14 8 -4 5 -1 9 4 9 19 0 12 17 -9
23 -11 3 -20 1 -20 -5z"/>
<path d="M7764 1424 c3 -9 6 -18 6 -20 0 -2 4 -4 9 -4 5 0 7 9 4 20 -3 11 -10
20 -15 20 -6 0 -7 -7 -4 -16z"/>
<path d="M7740 1421 c0 -6 4 -13 10 -16 6 -3 7 1 4 9 -7 18 -14 21 -14 7z"/>
<path d="M7870 1410 c0 -5 5 -10 11 -10 5 0 7 5 4 10 -3 6 -8 10 -11 10 -2 0
-4 -4 -4 -10z"/>
<path d="M7754 1079 c-3 -5 6 -9 20 -9 31 0 34 6 6 13 -11 3 -23 1 -26 -4z"/>
<path d="M8110 1765 l0 -54 110 -3 111 -3 2 -330 2 -330 68 -3 67 -3 0 336 0
335 105 0 105 0 0 55 0 55 -285 0 -285 0 0 -55z m54 20 c16 -9 40 -15 53 -15
12 0 35 0 49 0 15 0 32 5 39 10 9 8 15 6 19 -7 6 -15 8 -15 17 -3 6 11 11 12
17 4 35 -53 46 -62 64 -53 10 6 16 15 12 21 -4 7 -9 6 -14 -2 -9 -15 -30 -4
-30 16 0 8 -5 14 -11 14 -5 0 -7 5 -4 10 3 6 14 10 23 9 11 0 12 -2 4 -6 -6
-2 -9 -9 -6 -14 3 -6 11 -5 20 2 10 8 14 8 14 1 0 -6 7 -9 16 -5 13 5 15 1 10
-18 -7 -24 -7 -24 10 2 12 18 26 26 47 27 16 0 33 6 37 13 10 15 30 3 30 -19
0 -15 -2 -15 -10 -2 -5 8 -10 11 -10 5 0 -29 17 -35 40 -15 19 16 20 20 6 20
-9 0 -14 5 -11 10 4 7 13 7 25 0 11 -6 25 -9 32 -8 9 2 12 -6 10 -22 -2 -14
-5 -26 -6 -27 -1 -2 -43 -3 -92 -4 -109 -1 -121 -7 -118 -53 3 -29 0 -34 -14
-30 -16 5 -16 4 1 -9 21 -18 23 -57 2 -57 -21 0 -19 -20 3 -21 14 0 13 -3 -5
-16 -14 -9 -23 -26 -23 -42 0 -20 2 -23 10 -11 5 8 10 12 10 8 0 -3 2 -13 5
-21 4 -10 -2 -13 -23 -12 -15 1 -33 4 -39 8 -5 3 -10 0 -10 -8 0 -8 3 -14 6
-13 3 0 22 0 42 -1 l36 -1 1 -60 c0 -40 -3 -60 -11 -60 -9 0 -8 -3 1 -8 9 -6
12 -33 10 -95 -3 -72 -6 -87 -20 -91 -10 -2 -18 -10 -17 -18 0 -9 2 -9 5 -1 6
13 34 6 34 -8 0 -5 -8 -9 -17 -9 -15 0 -16 -2 -3 -10 12 -7 12 -12 2 -22 -8
-8 -15 -9 -20 -3 -9 13 -42 16 -42 4 0 -5 -4 -9 -10 -9 -15 0 -13 193 3 209 9
11 9 12 0 7 -10 -6 -13 40 -12 212 1 121 -1 224 -5 231 -5 7 -46 11 -117 11
l-109 0 0 35 c0 39 3 41 44 20z m293 9 c-3 -3 -12 -4 -19 -1 -8 3 -5 6 6 6 11
1 17 -2 13 -5z"/>
<path d="M8525 1750 c-3 -5 1 -10 10 -10 9 0 13 5 10 10 -3 6 -8 10 -10 10 -2
0 -7 -4 -10 -10z"/>
<path d="M8350 1740 c0 -5 5 -10 11 -10 5 0 7 5 4 10 -3 6 -8 10 -11 10 -2 0
-4 -4 -4 -10z"/>
<path d="M8367 1713 c-11 -11 -8 -20 7 -20 8 0 12 6 9 14 -6 15 -7 15 -16 6z"/>
<path d="M8360 1662 c0 -12 3 -13 11 -5 6 6 19 9 28 6 9 -4 13 -3 10 1 -4 4
-16 8 -28 11 -14 3 -21 -1 -21 -13z"/>
<path d="M8415 1610 c-3 -5 1 -10 10 -10 9 0 13 5 10 10 -3 6 -8 10 -10 10 -2
0 -7 -4 -10 -10z"/>
<path d="M8376 1534 c-20 -19 -20 -22 1 -42 16 -16 16 -16 10 2 -5 12 -1 26 9
37 21 23 2 25 -20 3z"/>
<path d="M8401 1414 c0 -11 3 -14 6 -6 3 7 2 16 -1 19 -3 4 -6 -2 -5 -13z"/>
<path d="M8400 1370 c0 -5 7 -7 15 -4 8 4 15 8 15 10 0 2 -7 4 -15 4 -8 0 -15
-4 -15 -10z"/>
<path d="M8426 1253 c-6 -14 -5 -15 5 -6 7 7 10 15 7 18 -3 3 -9 -2 -12 -12z"/>
<path d="M8390 1229 c0 -5 5 -7 10 -4 6 3 10 8 10 11 0 2 -4 4 -10 4 -5 0 -10
-5 -10 -11z"/>
<path d="M8390 1166 c0 -9 30 -14 35 -6 4 6 -3 10 -14 10 -12 0 -21 -2 -21 -4z"/>
<path d="M7261 1754 c0 -11 3 -14 6 -6 3 7 2 16 -1 19 -3 4 -6 -2 -5 -13z"/>
<path d="M6770 1740 c0 -5 5 -10 11 -10 5 0 7 5 4 10 -3 6 -8 10 -11 10 -2 0
-4 -4 -4 -10z"/>
<path d="M7306 1715 c4 -8 1 -15 -5 -15 -6 0 -11 5 -11 10 0 6 -7 10 -15 10
-8 0 -15 -5 -15 -11 0 -5 4 -8 9 -4 5 3 12 1 16 -5 3 -5 -1 -10 -10 -10 -9 0
-13 -4 -10 -10 4 -6 15 -4 30 6 13 9 29 13 35 9 5 -3 10 -2 10 2 0 5 -9 14
-20 20 -16 11 -18 10 -14 -2z"/>
<path d="M6803 1714 c3 -3 2 -17 -3 -30 -6 -14 -6 -26 0 -29 6 -4 10 1 10 9 0
9 5 16 11 16 11 0 39 25 39 35 0 3 -9 1 -20 -5 -14 -7 -20 -7 -20 0 0 5 -5 10
-12 10 -6 0 -9 -3 -5 -6z"/>
<path d="M6770 1700 c-8 -5 -11 -12 -7 -16 4 -4 13 -2 19 4 15 15 7 24 -12 12z"/>
<path d="M6725 1670 c-3 -6 1 -7 9 -4 18 7 21 14 7 14 -6 0 -13 -4 -16 -10z"/>
<path d="M6880 1664 c0 -8 5 -12 10 -9 6 4 8 11 5 16 -9 14 -15 11 -15 -7z"/>
<path d="M7273 1644 c-3 -8 -1 -20 6 -27 8 -8 11 -4 11 16 0 30 -7 35 -17 11z"/>
<path d="M6720 1630 c0 -5 5 -10 11 -10 5 0 7 5 4 10 -3 6 -8 10 -11 10 -2 0
-4 -4 -4 -10z"/>
<path d="M6777 1633 c-4 -3 -7 -17 -7 -31 0 -22 -2 -23 -17 -11 -14 13 -14 11
1 -19 10 -19 15 -40 12 -48 -3 -8 -1 -14 3 -14 5 0 9 20 9 44 0 25 3 54 7 65
6 21 4 26 -8 14z"/>
<path d="M6890 1630 c0 -5 5 -10 10 -10 6 0 10 5 10 10 0 6 -4 10 -10 10 -5 0
-10 -4 -10 -10z"/>
<path d="M7303 1633 c10 -9 56 -10 51 -1 -3 4 -17 8 -31 8 -15 0 -23 -3 -20
-7z"/>
<path d="M6837 1623 c-12 -12 -7 -22 8 -17 8 4 15 10 15 15 0 11 -14 12 -23 2z"/>
<path d="M6865 1600 c-3 -5 1 -10 10 -10 9 0 13 5 10 10 -3 6 -8 10 -10 10 -2
0 -7 -4 -10 -10z"/>
<path d="M7200 1590 c0 -5 5 -10 10 -10 6 0 10 -7 10 -15 0 -8 -5 -15 -12 -15
-6 0 -8 -3 -5 -6 4 -4 14 -1 24 7 15 13 16 12 9 -6 -5 -11 -11 -28 -13 -38 -7
-23 -29 -15 -25 9 3 18 3 18 -12 -1 -12 -15 -16 -16 -16 -5 0 11 -6 8 -20 -9
-11 -13 -20 -28 -20 -35 0 -6 7 -3 14 7 17 21 56 23 56 1 0 -8 -4 -12 -10 -9
-5 3 -10 -1 -10 -9 0 -9 -5 -16 -11 -16 -6 0 -9 -7 -5 -15 3 -8 1 -15 -4 -15
-6 0 -10 -5 -10 -11 0 -5 5 -7 10 -4 17 10 12 -9 -26 -100 -33 -79 -39 -86
-60 -82 -25 4 -33 -8 -11 -16 6 -3 -3 -6 -20 -6 -35 -1 -51 19 -71 89 -5 19
-13 42 -17 52 -4 11 0 18 14 23 12 3 18 11 15 17 -4 6 -10 5 -15 -3 -5 -8 -9
-9 -9 -4 0 6 -4 3 -10 -5 -10 -16 -13 -11 -62 130 -16 47 -34 90 -40 95 -18
17 1 -42 62 -195 95 -238 83 -217 132 -218 24 -1 48 2 54 6 11 8 174 397 174
415 0 7 -8 3 -16 -8 -14 -19 -16 -19 -25 -2 -11 18 -29 23 -29 7z"/>
<path d="M6890 1580 c-13 -9 -12 -12 4 -25 10 -8 24 -11 29 -8 6 4 2 10 -9 14
-10 4 -13 8 -6 8 6 1 12 6 12 11 0 13 -11 13 -30 0z"/>
<path d="M7320 1570 c-8 -5 -12 -11 -9 -14 2 -3 11 -1 19 4 8 5 12 11 9 14 -2
3 -11 1 -19 -4z"/>
<path d="M6927 1494 c-4 -4 -2 -13 4 -21 9 -9 8 -13 0 -13 -6 0 -11 -4 -11
-10 0 -14 17 -12 23 3 6 16 -7 50 -16 41z"/>
<path d="M7360 1481 c0 -7 -5 -9 -12 -5 -7 5 -8 3 -3 -5 5 -9 10 -10 18 -2 6
6 8 14 4 18 -4 3 -7 1 -7 -6z"/>
<path d="M6740 1445 c7 -9 15 -13 17 -11 7 7 -7 26 -19 26 -6 0 -6 -6 2 -15z"/>
<path d="M6925 1420 c3 -5 8 -10 11 -10 2 0 4 5 4 10 0 6 -5 10 -11 10 -5 0
-7 -4 -4 -10z"/>
<path d="M7317 1423 c-4 -3 -7 -11 -7 -17 0 -6 5 -5 12 2 6 6 9 14 7 17 -3 3
-9 2 -12 -2z"/>
<path d="M6755 1409 c-11 -17 1 -21 15 -4 8 9 8 15 2 15 -6 0 -14 -5 -17 -11z"/>
<path d="M7145 1369 c-4 -6 -5 -12 -2 -15 2 -3 7 2 10 11 7 17 1 20 -8 4z"/>
<path d="M7328 1363 c7 -3 16 -2 19 1 4 3 -2 6 -13 5 -11 0 -14 -3 -6 -6z"/>
<path d="M6740 1350 c19 -13 30 -13 30 0 0 6 -10 10 -22 10 -19 0 -20 -2 -8
-10z"/>
<path d="M7124 1347 c4 -13 -4 -22 -29 -34 -19 -9 -35 -21 -35 -25 0 -5 6 -6
13 -1 6 4 18 8 26 10 8 1 21 8 29 16 11 12 12 19 2 33 -10 17 -11 17 -6 1z"/>
<path d="M7320 1330 c0 -5 5 -10 10 -10 6 0 10 5 10 10 0 6 -4 10 -10 10 -5 0
-10 -4 -10 -10z"/>
<path d="M7005 1320 c-3 -5 -1 -10 4 -10 6 0 11 5 11 10 0 6 -2 10 -4 10 -3 0
-8 -4 -11 -10z"/>
<path d="M6738 1313 c6 -2 18 -2 25 0 6 3 1 5 -13 5 -14 0 -19 -2 -12 -5z"/>
<path d="M7030 1271 c0 -6 7 -11 15 -11 18 0 20 -16 3 -23 -8 -3 -6 -6 5 -6 9
-1 17 6 17 14 0 8 4 15 9 15 5 0 7 -10 3 -22 -3 -14 -2 -19 6 -14 16 10 15 46
0 46 -7 0 -23 3 -35 6 -14 4 -23 2 -23 -5z"/>
<path d="M6736 1135 c4 -8 8 -15 10 -15 2 0 4 7 4 15 0 8 -4 15 -10 15 -5 0
-7 -7 -4 -15z"/>
<path d="M7318 1083 c7 -3 16 -2 19 1 4 3 -2 6 -13 5 -11 0 -14 -3 -6 -6z"/>
</g>
</svg>
